<?xml version="1.0" encoding="utf-8" standalone="no"?>
<!DOCTYPE svg PUBLIC "-//W3C//DTD SVG 1.1//EN"
  "http://www.w3.org/Graphics/SVG/1.1/DTD/svg11.dtd">
<!-- Created with matplotlib (https://matplotlib.org/) -->
<svg height="445.797812pt" version="1.1" viewBox="0 0 829.150647 445.797812" width="829.150647pt" xmlns="http://www.w3.org/2000/svg" xmlns:xlink="http://www.w3.org/1999/xlink">
 <metadata>
  <rdf:RDF xmlns:cc="http://creativecommons.org/ns#" xmlns:dc="http://purl.org/dc/elements/1.1/" xmlns:rdf="http://www.w3.org/1999/02/22-rdf-syntax-ns#">
   <cc:Work>
    <dc:type rdf:resource="http://purl.org/dc/dcmitype/StillImage"/>
    <dc:date>2021-08-17T10:10:56.037782</dc:date>
    <dc:format>image/svg+xml</dc:format>
    <dc:creator>
     <cc:Agent>
      <dc:title>Matplotlib v3.3.4, https://matplotlib.org/</dc:title>
     </cc:Agent>
    </dc:creator>
   </cc:Work>
  </rdf:RDF>
 </metadata>
 <defs>
  <style type="text/css">*{stroke-linecap:butt;stroke-linejoin:round;}</style>
 </defs>
 <g id="figure_1">
  <g id="patch_1">
   <path d="M 0 445.797812 
L 829.150647 445.797812 
L 829.150647 0 
L 0 0 
z
" style="fill:#ffffff;"/>
  </g>
  <g id="axes_1">
   <g id="patch_2">
    <path d="M 257.881094 402.838125 
L 815.881094 402.838125 
L 815.881094 22.318125 
L 257.881094 22.318125 
z
" style="fill:#ffffff;"/>
   </g>
   <g id="matplotlib.axis_1">
    <g id="xtick_1">
     <g id="line2d_1">
      <path clip-path="url(#p0cfaf6b047)" d="M 257.881094 402.838125 
L 257.881094 22.318125 
" style="fill:none;stroke:#cccccc;stroke-linecap:round;"/>
     </g>
     <g id="text_1">
      <!-- 0 -->
      <g style="fill:#262626;" transform="translate(254.381719 420.696406)scale(0.11 -0.11)">
       <defs>
        <path d="M 31.78125 66.40625 
Q 24.171875 66.40625 20.328125 58.90625 
Q 16.5 51.421875 16.5 36.375 
Q 16.5 21.390625 20.328125 13.890625 
Q 24.171875 6.390625 31.78125 6.390625 
Q 39.453125 6.390625 43.28125 13.890625 
Q 47.125 21.390625 47.125 36.375 
Q 47.125 51.421875 43.28125 58.90625 
Q 39.453125 66.40625 31.78125 66.40625 
z
M 31.78125 74.21875 
Q 44.046875 74.21875 50.515625 64.515625 
Q 56.984375 54.828125 56.984375 36.375 
Q 56.984375 17.96875 50.515625 8.265625 
Q 44.046875 -1.421875 31.78125 -1.421875 
Q 19.53125 -1.421875 13.0625 8.265625 
Q 6.59375 17.96875 6.59375 36.375 
Q 6.59375 54.828125 13.0625 64.515625 
Q 19.53125 74.21875 31.78125 74.21875 
z
" id="DejaVuSans-48"/>
       </defs>
       <use xlink:href="#DejaVuSans-48"/>
      </g>
     </g>
    </g>
    <g id="xtick_2">
     <g id="line2d_2">
      <path clip-path="url(#p0cfaf6b047)" d="M 327.077522 402.838125 
L 327.077522 22.318125 
" style="fill:none;stroke:#cccccc;stroke-linecap:round;"/>
     </g>
     <g id="text_2">
      <!-- 25 -->
      <g style="fill:#262626;" transform="translate(320.078772 420.696406)scale(0.11 -0.11)">
       <defs>
        <path d="M 19.1875 8.296875 
L 53.609375 8.296875 
L 53.609375 0 
L 7.328125 0 
L 7.328125 8.296875 
Q 12.9375 14.109375 22.625 23.890625 
Q 32.328125 33.6875 34.8125 36.53125 
Q 39.546875 41.84375 41.421875 45.53125 
Q 43.3125 49.21875 43.3125 52.78125 
Q 43.3125 58.59375 39.234375 62.25 
Q 35.15625 65.921875 28.609375 65.921875 
Q 23.96875 65.921875 18.8125 64.3125 
Q 13.671875 62.703125 7.8125 59.421875 
L 7.8125 69.390625 
Q 13.765625 71.78125 18.9375 73 
Q 24.125 74.21875 28.421875 74.21875 
Q 39.75 74.21875 46.484375 68.546875 
Q 53.21875 62.890625 53.21875 53.421875 
Q 53.21875 48.921875 51.53125 44.890625 
Q 49.859375 40.875 45.40625 35.40625 
Q 44.1875 33.984375 37.640625 27.21875 
Q 31.109375 20.453125 19.1875 8.296875 
z
" id="DejaVuSans-50"/>
        <path d="M 10.796875 72.90625 
L 49.515625 72.90625 
L 49.515625 64.59375 
L 19.828125 64.59375 
L 19.828125 46.734375 
Q 21.96875 47.46875 24.109375 47.828125 
Q 26.265625 48.1875 28.421875 48.1875 
Q 40.625 48.1875 47.75 41.5 
Q 54.890625 34.8125 54.890625 23.390625 
Q 54.890625 11.625 47.5625 5.09375 
Q 40.234375 -1.421875 26.90625 -1.421875 
Q 22.3125 -1.421875 17.546875 -0.640625 
Q 12.796875 0.140625 7.71875 1.703125 
L 7.71875 11.625 
Q 12.109375 9.234375 16.796875 8.0625 
Q 21.484375 6.890625 26.703125 6.890625 
Q 35.15625 6.890625 40.078125 11.328125 
Q 45.015625 15.765625 45.015625 23.390625 
Q 45.015625 31 40.078125 35.4375 
Q 35.15625 39.890625 26.703125 39.890625 
Q 22.75 39.890625 18.8125 39.015625 
Q 14.890625 38.140625 10.796875 36.28125 
z
" id="DejaVuSans-53"/>
       </defs>
       <use xlink:href="#DejaVuSans-50"/>
       <use x="63.623047" xlink:href="#DejaVuSans-53"/>
      </g>
     </g>
    </g>
    <g id="xtick_3">
     <g id="line2d_3">
      <path clip-path="url(#p0cfaf6b047)" d="M 396.273951 402.838125 
L 396.273951 22.318125 
" style="fill:none;stroke:#cccccc;stroke-linecap:round;"/>
     </g>
     <g id="text_3">
      <!-- 50 -->
      <g style="fill:#262626;" transform="translate(389.275201 420.696406)scale(0.11 -0.11)">
       <use xlink:href="#DejaVuSans-53"/>
       <use x="63.623047" xlink:href="#DejaVuSans-48"/>
      </g>
     </g>
    </g>
    <g id="xtick_4">
     <g id="line2d_4">
      <path clip-path="url(#p0cfaf6b047)" d="M 465.470379 402.838125 
L 465.470379 22.318125 
" style="fill:none;stroke:#cccccc;stroke-linecap:round;"/>
     </g>
     <g id="text_4">
      <!-- 75 -->
      <g style="fill:#262626;" transform="translate(458.471629 420.696406)scale(0.11 -0.11)">
       <defs>
        <path d="M 8.203125 72.90625 
L 55.078125 72.90625 
L 55.078125 68.703125 
L 28.609375 0 
L 18.3125 0 
L 43.21875 64.59375 
L 8.203125 64.59375 
z
" id="DejaVuSans-55"/>
       </defs>
       <use xlink:href="#DejaVuSans-55"/>
       <use x="63.623047" xlink:href="#DejaVuSans-53"/>
      </g>
     </g>
    </g>
    <g id="xtick_5">
     <g id="line2d_5">
      <path clip-path="url(#p0cfaf6b047)" d="M 534.666808 402.838125 
L 534.666808 22.318125 
" style="fill:none;stroke:#cccccc;stroke-linecap:round;"/>
     </g>
     <g id="text_5">
      <!-- 100 -->
      <g style="fill:#262626;" transform="translate(524.168683 420.696406)scale(0.11 -0.11)">
       <defs>
        <path d="M 12.40625 8.296875 
L 28.515625 8.296875 
L 28.515625 63.921875 
L 10.984375 60.40625 
L 10.984375 69.390625 
L 28.421875 72.90625 
L 38.28125 72.90625 
L 38.28125 8.296875 
L 54.390625 8.296875 
L 54.390625 0 
L 12.40625 0 
z
" id="DejaVuSans-49"/>
       </defs>
       <use xlink:href="#DejaVuSans-49"/>
       <use x="63.623047" xlink:href="#DejaVuSans-48"/>
       <use x="127.246094" xlink:href="#DejaVuSans-48"/>
      </g>
     </g>
    </g>
    <g id="xtick_6">
     <g id="line2d_6">
      <path clip-path="url(#p0cfaf6b047)" d="M 603.863237 402.838125 
L 603.863237 22.318125 
" style="fill:none;stroke:#cccccc;stroke-linecap:round;"/>
     </g>
     <g id="text_6">
      <!-- 125 -->
      <g style="fill:#262626;" transform="translate(593.365112 420.696406)scale(0.11 -0.11)">
       <use xlink:href="#DejaVuSans-49"/>
       <use x="63.623047" xlink:href="#DejaVuSans-50"/>
       <use x="127.246094" xlink:href="#DejaVuSans-53"/>
      </g>
     </g>
    </g>
    <g id="xtick_7">
     <g id="line2d_7">
      <path clip-path="url(#p0cfaf6b047)" d="M 673.059665 402.838125 
L 673.059665 22.318125 
" style="fill:none;stroke:#cccccc;stroke-linecap:round;"/>
     </g>
     <g id="text_7">
      <!-- 150 -->
      <g style="fill:#262626;" transform="translate(662.56154 420.696406)scale(0.11 -0.11)">
       <use xlink:href="#DejaVuSans-49"/>
       <use x="63.623047" xlink:href="#DejaVuSans-53"/>
       <use x="127.246094" xlink:href="#DejaVuSans-48"/>
      </g>
     </g>
    </g>
    <g id="xtick_8">
     <g id="line2d_8">
      <path clip-path="url(#p0cfaf6b047)" d="M 742.256094 402.838125 
L 742.256094 22.318125 
" style="fill:none;stroke:#cccccc;stroke-linecap:round;"/>
     </g>
     <g id="text_8">
      <!-- 175 -->
      <g style="fill:#262626;" transform="translate(731.757969 420.696406)scale(0.11 -0.11)">
       <use xlink:href="#DejaVuSans-49"/>
       <use x="63.623047" xlink:href="#DejaVuSans-55"/>
       <use x="127.246094" xlink:href="#DejaVuSans-53"/>
      </g>
     </g>
    </g>
    <g id="xtick_9">
     <g id="line2d_9">
      <path clip-path="url(#p0cfaf6b047)" d="M 811.452522 402.838125 
L 811.452522 22.318125 
" style="fill:none;stroke:#cccccc;stroke-linecap:round;"/>
     </g>
     <g id="text_9">
      <!-- 200 -->
      <g style="fill:#262626;" transform="translate(800.954397 420.696406)scale(0.11 -0.11)">
       <use xlink:href="#DejaVuSans-50"/>
       <use x="63.623047" xlink:href="#DejaVuSans-48"/>
       <use x="127.246094" xlink:href="#DejaVuSans-48"/>
      </g>
     </g>
    </g>
    <g id="text_10">
     <!-- duration in min -->
     <g style="fill:#262626;" transform="translate(491.036406 436.102187)scale(0.12 -0.12)">
      <defs>
       <path d="M 45.40625 46.390625 
L 45.40625 75.984375 
L 54.390625 75.984375 
L 54.390625 0 
L 45.40625 0 
L 45.40625 8.203125 
Q 42.578125 3.328125 38.25 0.953125 
Q 33.9375 -1.421875 27.875 -1.421875 
Q 17.96875 -1.421875 11.734375 6.484375 
Q 5.515625 14.40625 5.515625 27.296875 
Q 5.515625 40.1875 11.734375 48.09375 
Q 17.96875 56 27.875 56 
Q 33.9375 56 38.25 53.625 
Q 42.578125 51.265625 45.40625 46.390625 
z
M 14.796875 27.296875 
Q 14.796875 17.390625 18.875 11.75 
Q 22.953125 6.109375 30.078125 6.109375 
Q 37.203125 6.109375 41.296875 11.75 
Q 45.40625 17.390625 45.40625 27.296875 
Q 45.40625 37.203125 41.296875 42.84375 
Q 37.203125 48.484375 30.078125 48.484375 
Q 22.953125 48.484375 18.875 42.84375 
Q 14.796875 37.203125 14.796875 27.296875 
z
" id="DejaVuSans-100"/>
       <path d="M 8.5 21.578125 
L 8.5 54.6875 
L 17.484375 54.6875 
L 17.484375 21.921875 
Q 17.484375 14.15625 20.5 10.265625 
Q 23.53125 6.390625 29.59375 6.390625 
Q 36.859375 6.390625 41.078125 11.03125 
Q 45.3125 15.671875 45.3125 23.6875 
L 45.3125 54.6875 
L 54.296875 54.6875 
L 54.296875 0 
L 45.3125 0 
L 45.3125 8.40625 
Q 42.046875 3.421875 37.71875 1 
Q 33.40625 -1.421875 27.6875 -1.421875 
Q 18.265625 -1.421875 13.375 4.4375 
Q 8.5 10.296875 8.5 21.578125 
z
M 31.109375 56 
z
" id="DejaVuSans-117"/>
       <path d="M 41.109375 46.296875 
Q 39.59375 47.171875 37.8125 47.578125 
Q 36.03125 48 33.890625 48 
Q 26.265625 48 22.1875 43.046875 
Q 18.109375 38.09375 18.109375 28.8125 
L 18.109375 0 
L 9.078125 0 
L 9.078125 54.6875 
L 18.109375 54.6875 
L 18.109375 46.1875 
Q 20.953125 51.171875 25.484375 53.578125 
Q 30.03125 56 36.53125 56 
Q 37.453125 56 38.578125 55.875 
Q 39.703125 55.765625 41.0625 55.515625 
z
" id="DejaVuSans-114"/>
       <path d="M 34.28125 27.484375 
Q 23.390625 27.484375 19.1875 25 
Q 14.984375 22.515625 14.984375 16.5 
Q 14.984375 11.71875 18.140625 8.90625 
Q 21.296875 6.109375 26.703125 6.109375 
Q 34.1875 6.109375 38.703125 11.40625 
Q 43.21875 16.703125 43.21875 25.484375 
L 43.21875 27.484375 
z
M 52.203125 31.203125 
L 52.203125 0 
L 43.21875 0 
L 43.21875 8.296875 
Q 40.140625 3.328125 35.546875 0.953125 
Q 30.953125 -1.421875 24.3125 -1.421875 
Q 15.921875 -1.421875 10.953125 3.296875 
Q 6 8.015625 6 15.921875 
Q 6 25.140625 12.171875 29.828125 
Q 18.359375 34.515625 30.609375 34.515625 
L 43.21875 34.515625 
L 43.21875 35.40625 
Q 43.21875 41.609375 39.140625 45 
Q 35.0625 48.390625 27.6875 48.390625 
Q 23 48.390625 18.546875 47.265625 
Q 14.109375 46.140625 10.015625 43.890625 
L 10.015625 52.203125 
Q 14.9375 54.109375 19.578125 55.046875 
Q 24.21875 56 28.609375 56 
Q 40.484375 56 46.34375 49.84375 
Q 52.203125 43.703125 52.203125 31.203125 
z
" id="DejaVuSans-97"/>
       <path d="M 18.3125 70.21875 
L 18.3125 54.6875 
L 36.8125 54.6875 
L 36.8125 47.703125 
L 18.3125 47.703125 
L 18.3125 18.015625 
Q 18.3125 11.328125 20.140625 9.421875 
Q 21.96875 7.515625 27.59375 7.515625 
L 36.8125 7.515625 
L 36.8125 0 
L 27.59375 0 
Q 17.1875 0 13.234375 3.875 
Q 9.28125 7.765625 9.28125 18.015625 
L 9.28125 47.703125 
L 2.6875 47.703125 
L 2.6875 54.6875 
L 9.28125 54.6875 
L 9.28125 70.21875 
z
" id="DejaVuSans-116"/>
       <path d="M 9.421875 54.6875 
L 18.40625 54.6875 
L 18.40625 0 
L 9.421875 0 
z
M 9.421875 75.984375 
L 18.40625 75.984375 
L 18.40625 64.59375 
L 9.421875 64.59375 
z
" id="DejaVuSans-105"/>
       <path d="M 30.609375 48.390625 
Q 23.390625 48.390625 19.1875 42.75 
Q 14.984375 37.109375 14.984375 27.296875 
Q 14.984375 17.484375 19.15625 11.84375 
Q 23.34375 6.203125 30.609375 6.203125 
Q 37.796875 6.203125 41.984375 11.859375 
Q 46.1875 17.53125 46.1875 27.296875 
Q 46.1875 37.015625 41.984375 42.703125 
Q 37.796875 48.390625 30.609375 48.390625 
z
M 30.609375 56 
Q 42.328125 56 49.015625 48.375 
Q 55.71875 40.765625 55.71875 27.296875 
Q 55.71875 13.875 49.015625 6.21875 
Q 42.328125 -1.421875 30.609375 -1.421875 
Q 18.84375 -1.421875 12.171875 6.21875 
Q 5.515625 13.875 5.515625 27.296875 
Q 5.515625 40.765625 12.171875 48.375 
Q 18.84375 56 30.609375 56 
z
" id="DejaVuSans-111"/>
       <path d="M 54.890625 33.015625 
L 54.890625 0 
L 45.90625 0 
L 45.90625 32.71875 
Q 45.90625 40.484375 42.875 44.328125 
Q 39.84375 48.1875 33.796875 48.1875 
Q 26.515625 48.1875 22.3125 43.546875 
Q 18.109375 38.921875 18.109375 30.90625 
L 18.109375 0 
L 9.078125 0 
L 9.078125 54.6875 
L 18.109375 54.6875 
L 18.109375 46.1875 
Q 21.34375 51.125 25.703125 53.5625 
Q 30.078125 56 35.796875 56 
Q 45.21875 56 50.046875 50.171875 
Q 54.890625 44.34375 54.890625 33.015625 
z
" id="DejaVuSans-110"/>
       <path id="DejaVuSans-32"/>
       <path d="M 52 44.1875 
Q 55.375 50.25 60.0625 53.125 
Q 64.75 56 71.09375 56 
Q 79.640625 56 84.28125 50.015625 
Q 88.921875 44.046875 88.921875 33.015625 
L 88.921875 0 
L 79.890625 0 
L 79.890625 32.71875 
Q 79.890625 40.578125 77.09375 44.375 
Q 74.3125 48.1875 68.609375 48.1875 
Q 61.625 48.1875 57.5625 43.546875 
Q 53.515625 38.921875 53.515625 30.90625 
L 53.515625 0 
L 44.484375 0 
L 44.484375 32.71875 
Q 44.484375 40.625 41.703125 44.40625 
Q 38.921875 48.1875 33.109375 48.1875 
Q 26.21875 48.1875 22.15625 43.53125 
Q 18.109375 38.875 18.109375 30.90625 
L 18.109375 0 
L 9.078125 0 
L 9.078125 54.6875 
L 18.109375 54.6875 
L 18.109375 46.1875 
Q 21.1875 51.21875 25.484375 53.609375 
Q 29.78125 56 35.6875 56 
Q 41.65625 56 45.828125 52.96875 
Q 50 49.953125 52 44.1875 
z
" id="DejaVuSans-109"/>
      </defs>
      <use xlink:href="#DejaVuSans-100"/>
      <use x="63.476562" xlink:href="#DejaVuSans-117"/>
      <use x="126.855469" xlink:href="#DejaVuSans-114"/>
      <use x="167.96875" xlink:href="#DejaVuSans-97"/>
      <use x="229.248047" xlink:href="#DejaVuSans-116"/>
      <use x="268.457031" xlink:href="#DejaVuSans-105"/>
      <use x="296.240234" xlink:href="#DejaVuSans-111"/>
      <use x="357.421875" xlink:href="#DejaVuSans-110"/>
      <use x="420.800781" xlink:href="#DejaVuSans-32"/>
      <use x="452.587891" xlink:href="#DejaVuSans-105"/>
      <use x="480.371094" xlink:href="#DejaVuSans-110"/>
      <use x="543.75" xlink:href="#DejaVuSans-32"/>
      <use x="575.537109" xlink:href="#DejaVuSans-109"/>
      <use x="672.949219" xlink:href="#DejaVuSans-105"/>
      <use x="700.732422" xlink:href="#DejaVuSans-110"/>
     </g>
    </g>
   </g>
   <g id="matplotlib.axis_2">
    <g id="ytick_1">
     <g id="text_11">
      <!-- Eternal Sunshine of the Spotless Mind -->
      <g style="fill:#262626;" transform="translate(39.898438 32.26272)scale(0.11 -0.11)">
       <defs>
        <path d="M 9.8125 72.90625 
L 55.90625 72.90625 
L 55.90625 64.59375 
L 19.671875 64.59375 
L 19.671875 43.015625 
L 54.390625 43.015625 
L 54.390625 34.71875 
L 19.671875 34.71875 
L 19.671875 8.296875 
L 56.78125 8.296875 
L 56.78125 0 
L 9.8125 0 
z
" id="DejaVuSans-69"/>
        <path d="M 56.203125 29.59375 
L 56.203125 25.203125 
L 14.890625 25.203125 
Q 15.484375 15.921875 20.484375 11.0625 
Q 25.484375 6.203125 34.421875 6.203125 
Q 39.59375 6.203125 44.453125 7.46875 
Q 49.3125 8.734375 54.109375 11.28125 
L 54.109375 2.78125 
Q 49.265625 0.734375 44.1875 -0.34375 
Q 39.109375 -1.421875 33.890625 -1.421875 
Q 20.796875 -1.421875 13.15625 6.1875 
Q 5.515625 13.8125 5.515625 26.8125 
Q 5.515625 40.234375 12.765625 48.109375 
Q 20.015625 56 32.328125 56 
Q 43.359375 56 49.78125 48.890625 
Q 56.203125 41.796875 56.203125 29.59375 
z
M 47.21875 32.234375 
Q 47.125 39.59375 43.09375 43.984375 
Q 39.0625 48.390625 32.421875 48.390625 
Q 24.90625 48.390625 20.390625 44.140625 
Q 15.875 39.890625 15.1875 32.171875 
z
" id="DejaVuSans-101"/>
        <path d="M 9.421875 75.984375 
L 18.40625 75.984375 
L 18.40625 0 
L 9.421875 0 
z
" id="DejaVuSans-108"/>
        <path d="M 53.515625 70.515625 
L 53.515625 60.890625 
Q 47.90625 63.578125 42.921875 64.890625 
Q 37.9375 66.21875 33.296875 66.21875 
Q 25.25 66.21875 20.875 63.09375 
Q 16.5 59.96875 16.5 54.203125 
Q 16.5 49.359375 19.40625 46.890625 
Q 22.3125 44.4375 30.421875 42.921875 
L 36.375 41.703125 
Q 47.40625 39.59375 52.65625 34.296875 
Q 57.90625 29 57.90625 20.125 
Q 57.90625 9.515625 50.796875 4.046875 
Q 43.703125 -1.421875 29.984375 -1.421875 
Q 24.8125 -1.421875 18.96875 -0.25 
Q 13.140625 0.921875 6.890625 3.21875 
L 6.890625 13.375 
Q 12.890625 10.015625 18.65625 8.296875 
Q 24.421875 6.59375 29.984375 6.59375 
Q 38.421875 6.59375 43.015625 9.90625 
Q 47.609375 13.234375 47.609375 19.390625 
Q 47.609375 24.75 44.3125 27.78125 
Q 41.015625 30.8125 33.5 32.328125 
L 27.484375 33.5 
Q 16.453125 35.6875 11.515625 40.375 
Q 6.59375 45.0625 6.59375 53.421875 
Q 6.59375 63.09375 13.40625 68.65625 
Q 20.21875 74.21875 32.171875 74.21875 
Q 37.3125 74.21875 42.625 73.28125 
Q 47.953125 72.359375 53.515625 70.515625 
z
" id="DejaVuSans-83"/>
        <path d="M 44.28125 53.078125 
L 44.28125 44.578125 
Q 40.484375 46.53125 36.375 47.5 
Q 32.28125 48.484375 27.875 48.484375 
Q 21.1875 48.484375 17.84375 46.4375 
Q 14.5 44.390625 14.5 40.28125 
Q 14.5 37.15625 16.890625 35.375 
Q 19.28125 33.59375 26.515625 31.984375 
L 29.59375 31.296875 
Q 39.15625 29.25 43.1875 25.515625 
Q 47.21875 21.78125 47.21875 15.09375 
Q 47.21875 7.46875 41.1875 3.015625 
Q 35.15625 -1.421875 24.609375 -1.421875 
Q 20.21875 -1.421875 15.453125 -0.5625 
Q 10.6875 0.296875 5.421875 2 
L 5.421875 11.28125 
Q 10.40625 8.6875 15.234375 7.390625 
Q 20.0625 6.109375 24.8125 6.109375 
Q 31.15625 6.109375 34.5625 8.28125 
Q 37.984375 10.453125 37.984375 14.40625 
Q 37.984375 18.0625 35.515625 20.015625 
Q 33.0625 21.96875 24.703125 23.78125 
L 21.578125 24.515625 
Q 13.234375 26.265625 9.515625 29.90625 
Q 5.8125 33.546875 5.8125 39.890625 
Q 5.8125 47.609375 11.28125 51.796875 
Q 16.75 56 26.8125 56 
Q 31.78125 56 36.171875 55.265625 
Q 40.578125 54.546875 44.28125 53.078125 
z
" id="DejaVuSans-115"/>
        <path d="M 54.890625 33.015625 
L 54.890625 0 
L 45.90625 0 
L 45.90625 32.71875 
Q 45.90625 40.484375 42.875 44.328125 
Q 39.84375 48.1875 33.796875 48.1875 
Q 26.515625 48.1875 22.3125 43.546875 
Q 18.109375 38.921875 18.109375 30.90625 
L 18.109375 0 
L 9.078125 0 
L 9.078125 75.984375 
L 18.109375 75.984375 
L 18.109375 46.1875 
Q 21.34375 51.125 25.703125 53.5625 
Q 30.078125 56 35.796875 56 
Q 45.21875 56 50.046875 50.171875 
Q 54.890625 44.34375 54.890625 33.015625 
z
" id="DejaVuSans-104"/>
        <path d="M 37.109375 75.984375 
L 37.109375 68.5 
L 28.515625 68.5 
Q 23.6875 68.5 21.796875 66.546875 
Q 19.921875 64.59375 19.921875 59.515625 
L 19.921875 54.6875 
L 34.71875 54.6875 
L 34.71875 47.703125 
L 19.921875 47.703125 
L 19.921875 0 
L 10.890625 0 
L 10.890625 47.703125 
L 2.296875 47.703125 
L 2.296875 54.6875 
L 10.890625 54.6875 
L 10.890625 58.5 
Q 10.890625 67.625 15.140625 71.796875 
Q 19.390625 75.984375 28.609375 75.984375 
z
" id="DejaVuSans-102"/>
        <path d="M 18.109375 8.203125 
L 18.109375 -20.796875 
L 9.078125 -20.796875 
L 9.078125 54.6875 
L 18.109375 54.6875 
L 18.109375 46.390625 
Q 20.953125 51.265625 25.265625 53.625 
Q 29.59375 56 35.59375 56 
Q 45.5625 56 51.78125 48.09375 
Q 58.015625 40.1875 58.015625 27.296875 
Q 58.015625 14.40625 51.78125 6.484375 
Q 45.5625 -1.421875 35.59375 -1.421875 
Q 29.59375 -1.421875 25.265625 0.953125 
Q 20.953125 3.328125 18.109375 8.203125 
z
M 48.6875 27.296875 
Q 48.6875 37.203125 44.609375 42.84375 
Q 40.53125 48.484375 33.40625 48.484375 
Q 26.265625 48.484375 22.1875 42.84375 
Q 18.109375 37.203125 18.109375 27.296875 
Q 18.109375 17.390625 22.1875 11.75 
Q 26.265625 6.109375 33.40625 6.109375 
Q 40.53125 6.109375 44.609375 11.75 
Q 48.6875 17.390625 48.6875 27.296875 
z
" id="DejaVuSans-112"/>
        <path d="M 9.8125 72.90625 
L 24.515625 72.90625 
L 43.109375 23.296875 
L 61.8125 72.90625 
L 76.515625 72.90625 
L 76.515625 0 
L 66.890625 0 
L 66.890625 64.015625 
L 48.09375 14.015625 
L 38.1875 14.015625 
L 19.390625 64.015625 
L 19.390625 0 
L 9.8125 0 
z
" id="DejaVuSans-77"/>
       </defs>
       <use xlink:href="#DejaVuSans-69"/>
       <use x="63.183594" xlink:href="#DejaVuSans-116"/>
       <use x="102.392578" xlink:href="#DejaVuSans-101"/>
       <use x="163.916016" xlink:href="#DejaVuSans-114"/>
       <use x="203.279297" xlink:href="#DejaVuSans-110"/>
       <use x="266.658203" xlink:href="#DejaVuSans-97"/>
       <use x="327.9375" xlink:href="#DejaVuSans-108"/>
       <use x="355.720703" xlink:href="#DejaVuSans-32"/>
       <use x="387.507812" xlink:href="#DejaVuSans-83"/>
       <use x="450.984375" xlink:href="#DejaVuSans-117"/>
       <use x="514.363281" xlink:href="#DejaVuSans-110"/>
       <use x="577.742188" xlink:href="#DejaVuSans-115"/>
       <use x="629.841797" xlink:href="#DejaVuSans-104"/>
       <use x="693.220703" xlink:href="#DejaVuSans-105"/>
       <use x="721.003906" xlink:href="#DejaVuSans-110"/>
       <use x="784.382812" xlink:href="#DejaVuSans-101"/>
       <use x="845.90625" xlink:href="#DejaVuSans-32"/>
       <use x="877.693359" xlink:href="#DejaVuSans-111"/>
       <use x="938.875" xlink:href="#DejaVuSans-102"/>
       <use x="974.080078" xlink:href="#DejaVuSans-32"/>
       <use x="1005.867188" xlink:href="#DejaVuSans-116"/>
       <use x="1045.076172" xlink:href="#DejaVuSans-104"/>
       <use x="1108.455078" xlink:href="#DejaVuSans-101"/>
       <use x="1169.978516" xlink:href="#DejaVuSans-32"/>
       <use x="1201.765625" xlink:href="#DejaVuSans-83"/>
       <use x="1265.242188" xlink:href="#DejaVuSans-112"/>
       <use x="1328.71875" xlink:href="#DejaVuSans-111"/>
       <use x="1389.900391" xlink:href="#DejaVuSans-116"/>
       <use x="1429.109375" xlink:href="#DejaVuSans-108"/>
       <use x="1456.892578" xlink:href="#DejaVuSans-101"/>
       <use x="1518.416016" xlink:href="#DejaVuSans-115"/>
       <use x="1570.515625" xlink:href="#DejaVuSans-115"/>
       <use x="1622.615234" xlink:href="#DejaVuSans-32"/>
       <use x="1654.402344" xlink:href="#DejaVuSans-77"/>
       <use x="1740.681641" xlink:href="#DejaVuSans-105"/>
       <use x="1768.464844" xlink:href="#DejaVuSans-110"/>
       <use x="1831.84375" xlink:href="#DejaVuSans-100"/>
      </g>
     </g>
    </g>
    <g id="ytick_2">
     <g id="text_12">
      <!-- Swades -->
      <g style="fill:#262626;" transform="translate(206.178906 43.793629)scale(0.11 -0.11)">
       <defs>
        <path d="M 4.203125 54.6875 
L 13.1875 54.6875 
L 24.421875 12.015625 
L 35.59375 54.6875 
L 46.1875 54.6875 
L 57.421875 12.015625 
L 68.609375 54.6875 
L 77.59375 54.6875 
L 63.28125 0 
L 52.6875 0 
L 40.921875 44.828125 
L 29.109375 0 
L 18.5 0 
z
" id="DejaVuSans-119"/>
       </defs>
       <use xlink:href="#DejaVuSans-83"/>
       <use x="63.476562" xlink:href="#DejaVuSans-119"/>
       <use x="145.263672" xlink:href="#DejaVuSans-97"/>
       <use x="206.542969" xlink:href="#DejaVuSans-100"/>
       <use x="270.019531" xlink:href="#DejaVuSans-101"/>
       <use x="331.542969" xlink:href="#DejaVuSans-115"/>
      </g>
     </g>
    </g>
    <g id="ytick_3">
     <g id="text_13">
      <!-- Downfall -->
      <g style="fill:#262626;" transform="translate(200.488125 55.324538)scale(0.11 -0.11)">
       <defs>
        <path d="M 19.671875 64.796875 
L 19.671875 8.109375 
L 31.59375 8.109375 
Q 46.6875 8.109375 53.6875 14.9375 
Q 60.6875 21.78125 60.6875 36.53125 
Q 60.6875 51.171875 53.6875 57.984375 
Q 46.6875 64.796875 31.59375 64.796875 
z
M 9.8125 72.90625 
L 30.078125 72.90625 
Q 51.265625 72.90625 61.171875 64.09375 
Q 71.09375 55.28125 71.09375 36.53125 
Q 71.09375 17.671875 61.125 8.828125 
Q 51.171875 0 30.078125 0 
L 9.8125 0 
z
" id="DejaVuSans-68"/>
       </defs>
       <use xlink:href="#DejaVuSans-68"/>
       <use x="77.001953" xlink:href="#DejaVuSans-111"/>
       <use x="138.183594" xlink:href="#DejaVuSans-119"/>
       <use x="219.970703" xlink:href="#DejaVuSans-110"/>
       <use x="283.349609" xlink:href="#DejaVuSans-102"/>
       <use x="318.554688" xlink:href="#DejaVuSans-97"/>
       <use x="379.833984" xlink:href="#DejaVuSans-108"/>
       <use x="407.617188" xlink:href="#DejaVuSans-108"/>
      </g>
     </g>
    </g>
    <g id="ytick_4">
     <g id="text_14">
      <!-- Howl's Moving Castle -->
      <g style="fill:#262626;" transform="translate(131.549062 66.855447)scale(0.11 -0.11)">
       <defs>
        <path d="M 9.8125 72.90625 
L 19.671875 72.90625 
L 19.671875 43.015625 
L 55.515625 43.015625 
L 55.515625 72.90625 
L 65.375 72.90625 
L 65.375 0 
L 55.515625 0 
L 55.515625 34.71875 
L 19.671875 34.71875 
L 19.671875 0 
L 9.8125 0 
z
" id="DejaVuSans-72"/>
        <path d="M 17.921875 72.90625 
L 17.921875 45.796875 
L 9.625 45.796875 
L 9.625 72.90625 
z
" id="DejaVuSans-39"/>
        <path d="M 2.984375 54.6875 
L 12.5 54.6875 
L 29.59375 8.796875 
L 46.6875 54.6875 
L 56.203125 54.6875 
L 35.6875 0 
L 23.484375 0 
z
" id="DejaVuSans-118"/>
        <path d="M 45.40625 27.984375 
Q 45.40625 37.75 41.375 43.109375 
Q 37.359375 48.484375 30.078125 48.484375 
Q 22.859375 48.484375 18.828125 43.109375 
Q 14.796875 37.75 14.796875 27.984375 
Q 14.796875 18.265625 18.828125 12.890625 
Q 22.859375 7.515625 30.078125 7.515625 
Q 37.359375 7.515625 41.375 12.890625 
Q 45.40625 18.265625 45.40625 27.984375 
z
M 54.390625 6.78125 
Q 54.390625 -7.171875 48.1875 -13.984375 
Q 42 -20.796875 29.203125 -20.796875 
Q 24.46875 -20.796875 20.265625 -20.09375 
Q 16.0625 -19.390625 12.109375 -17.921875 
L 12.109375 -9.1875 
Q 16.0625 -11.328125 19.921875 -12.34375 
Q 23.78125 -13.375 27.78125 -13.375 
Q 36.625 -13.375 41.015625 -8.765625 
Q 45.40625 -4.15625 45.40625 5.171875 
L 45.40625 9.625 
Q 42.625 4.78125 38.28125 2.390625 
Q 33.9375 0 27.875 0 
Q 17.828125 0 11.671875 7.65625 
Q 5.515625 15.328125 5.515625 27.984375 
Q 5.515625 40.671875 11.671875 48.328125 
Q 17.828125 56 27.875 56 
Q 33.9375 56 38.28125 53.609375 
Q 42.625 51.21875 45.40625 46.390625 
L 45.40625 54.6875 
L 54.390625 54.6875 
z
" id="DejaVuSans-103"/>
        <path d="M 64.40625 67.28125 
L 64.40625 56.890625 
Q 59.421875 61.53125 53.78125 63.8125 
Q 48.140625 66.109375 41.796875 66.109375 
Q 29.296875 66.109375 22.65625 58.46875 
Q 16.015625 50.828125 16.015625 36.375 
Q 16.015625 21.96875 22.65625 14.328125 
Q 29.296875 6.6875 41.796875 6.6875 
Q 48.140625 6.6875 53.78125 8.984375 
Q 59.421875 11.28125 64.40625 15.921875 
L 64.40625 5.609375 
Q 59.234375 2.09375 53.4375 0.328125 
Q 47.65625 -1.421875 41.21875 -1.421875 
Q 24.65625 -1.421875 15.125 8.703125 
Q 5.609375 18.84375 5.609375 36.375 
Q 5.609375 53.953125 15.125 64.078125 
Q 24.65625 74.21875 41.21875 74.21875 
Q 47.75 74.21875 53.53125 72.484375 
Q 59.328125 70.75 64.40625 67.28125 
z
" id="DejaVuSans-67"/>
       </defs>
       <use xlink:href="#DejaVuSans-72"/>
       <use x="75.195312" xlink:href="#DejaVuSans-111"/>
       <use x="136.376953" xlink:href="#DejaVuSans-119"/>
       <use x="218.164062" xlink:href="#DejaVuSans-108"/>
       <use x="245.947266" xlink:href="#DejaVuSans-39"/>
       <use x="273.4375" xlink:href="#DejaVuSans-115"/>
       <use x="325.537109" xlink:href="#DejaVuSans-32"/>
       <use x="357.324219" xlink:href="#DejaVuSans-77"/>
       <use x="443.603516" xlink:href="#DejaVuSans-111"/>
       <use x="504.785156" xlink:href="#DejaVuSans-118"/>
       <use x="563.964844" xlink:href="#DejaVuSans-105"/>
       <use x="591.748047" xlink:href="#DejaVuSans-110"/>
       <use x="655.126953" xlink:href="#DejaVuSans-103"/>
       <use x="718.603516" xlink:href="#DejaVuSans-32"/>
       <use x="750.390625" xlink:href="#DejaVuSans-67"/>
       <use x="820.214844" xlink:href="#DejaVuSans-97"/>
       <use x="881.494141" xlink:href="#DejaVuSans-115"/>
       <use x="933.59375" xlink:href="#DejaVuSans-116"/>
       <use x="972.802734" xlink:href="#DejaVuSans-108"/>
       <use x="1000.585938" xlink:href="#DejaVuSans-101"/>
      </g>
     </g>
    </g>
    <g id="ytick_5">
     <g id="text_15">
      <!-- Nobody Knows -->
      <g style="fill:#262626;" transform="translate(167.075625 78.386357)scale(0.11 -0.11)">
       <defs>
        <path d="M 9.8125 72.90625 
L 23.09375 72.90625 
L 55.421875 11.921875 
L 55.421875 72.90625 
L 64.984375 72.90625 
L 64.984375 0 
L 51.703125 0 
L 19.390625 60.984375 
L 19.390625 0 
L 9.8125 0 
z
" id="DejaVuSans-78"/>
        <path d="M 48.6875 27.296875 
Q 48.6875 37.203125 44.609375 42.84375 
Q 40.53125 48.484375 33.40625 48.484375 
Q 26.265625 48.484375 22.1875 42.84375 
Q 18.109375 37.203125 18.109375 27.296875 
Q 18.109375 17.390625 22.1875 11.75 
Q 26.265625 6.109375 33.40625 6.109375 
Q 40.53125 6.109375 44.609375 11.75 
Q 48.6875 17.390625 48.6875 27.296875 
z
M 18.109375 46.390625 
Q 20.953125 51.265625 25.265625 53.625 
Q 29.59375 56 35.59375 56 
Q 45.5625 56 51.78125 48.09375 
Q 58.015625 40.1875 58.015625 27.296875 
Q 58.015625 14.40625 51.78125 6.484375 
Q 45.5625 -1.421875 35.59375 -1.421875 
Q 29.59375 -1.421875 25.265625 0.953125 
Q 20.953125 3.328125 18.109375 8.203125 
L 18.109375 0 
L 9.078125 0 
L 9.078125 75.984375 
L 18.109375 75.984375 
z
" id="DejaVuSans-98"/>
        <path d="M 32.171875 -5.078125 
Q 28.375 -14.84375 24.75 -17.8125 
Q 21.140625 -20.796875 15.09375 -20.796875 
L 7.90625 -20.796875 
L 7.90625 -13.28125 
L 13.1875 -13.28125 
Q 16.890625 -13.28125 18.9375 -11.515625 
Q 21 -9.765625 23.484375 -3.21875 
L 25.09375 0.875 
L 2.984375 54.6875 
L 12.5 54.6875 
L 29.59375 11.921875 
L 46.6875 54.6875 
L 56.203125 54.6875 
z
" id="DejaVuSans-121"/>
        <path d="M 9.8125 72.90625 
L 19.671875 72.90625 
L 19.671875 42.09375 
L 52.390625 72.90625 
L 65.09375 72.90625 
L 28.90625 38.921875 
L 67.671875 0 
L 54.6875 0 
L 19.671875 35.109375 
L 19.671875 0 
L 9.8125 0 
z
" id="DejaVuSans-75"/>
       </defs>
       <use xlink:href="#DejaVuSans-78"/>
       <use x="74.804688" xlink:href="#DejaVuSans-111"/>
       <use x="135.986328" xlink:href="#DejaVuSans-98"/>
       <use x="199.462891" xlink:href="#DejaVuSans-111"/>
       <use x="260.644531" xlink:href="#DejaVuSans-100"/>
       <use x="324.121094" xlink:href="#DejaVuSans-121"/>
       <use x="383.300781" xlink:href="#DejaVuSans-32"/>
       <use x="415.087891" xlink:href="#DejaVuSans-75"/>
       <use x="480.664062" xlink:href="#DejaVuSans-110"/>
       <use x="544.042969" xlink:href="#DejaVuSans-111"/>
       <use x="605.224609" xlink:href="#DejaVuSans-119"/>
       <use x="687.011719" xlink:href="#DejaVuSans-115"/>
      </g>
     </g>
    </g>
    <g id="ytick_6">
     <g id="text_16">
      <!-- Million Dollar Baby -->
      <g style="fill:#262626;" transform="translate(145.615312 89.917266)scale(0.11 -0.11)">
       <defs>
        <path d="M 19.671875 34.8125 
L 19.671875 8.109375 
L 35.5 8.109375 
Q 43.453125 8.109375 47.28125 11.40625 
Q 51.125 14.703125 51.125 21.484375 
Q 51.125 28.328125 47.28125 31.5625 
Q 43.453125 34.8125 35.5 34.8125 
z
M 19.671875 64.796875 
L 19.671875 42.828125 
L 34.28125 42.828125 
Q 41.5 42.828125 45.03125 45.53125 
Q 48.578125 48.25 48.578125 53.8125 
Q 48.578125 59.328125 45.03125 62.0625 
Q 41.5 64.796875 34.28125 64.796875 
z
M 9.8125 72.90625 
L 35.015625 72.90625 
Q 46.296875 72.90625 52.390625 68.21875 
Q 58.5 63.53125 58.5 54.890625 
Q 58.5 48.1875 55.375 44.234375 
Q 52.25 40.28125 46.1875 39.3125 
Q 53.46875 37.75 57.5 32.78125 
Q 61.53125 27.828125 61.53125 20.40625 
Q 61.53125 10.640625 54.890625 5.3125 
Q 48.25 0 35.984375 0 
L 9.8125 0 
z
" id="DejaVuSans-66"/>
       </defs>
       <use xlink:href="#DejaVuSans-77"/>
       <use x="86.279297" xlink:href="#DejaVuSans-105"/>
       <use x="114.0625" xlink:href="#DejaVuSans-108"/>
       <use x="141.845703" xlink:href="#DejaVuSans-108"/>
       <use x="169.628906" xlink:href="#DejaVuSans-105"/>
       <use x="197.412109" xlink:href="#DejaVuSans-111"/>
       <use x="258.59375" xlink:href="#DejaVuSans-110"/>
       <use x="321.972656" xlink:href="#DejaVuSans-32"/>
       <use x="353.759766" xlink:href="#DejaVuSans-68"/>
       <use x="430.761719" xlink:href="#DejaVuSans-111"/>
       <use x="491.943359" xlink:href="#DejaVuSans-108"/>
       <use x="519.726562" xlink:href="#DejaVuSans-108"/>
       <use x="547.509766" xlink:href="#DejaVuSans-97"/>
       <use x="608.789062" xlink:href="#DejaVuSans-114"/>
       <use x="649.902344" xlink:href="#DejaVuSans-32"/>
       <use x="681.689453" xlink:href="#DejaVuSans-66"/>
       <use x="750.292969" xlink:href="#DejaVuSans-97"/>
       <use x="811.572266" xlink:href="#DejaVuSans-98"/>
       <use x="875.048828" xlink:href="#DejaVuSans-121"/>
      </g>
     </g>
    </g>
    <g id="ytick_7">
     <g id="text_17">
      <!-- Hotel Rwanda -->
      <g style="fill:#262626;" transform="translate(171.669844 101.448175)scale(0.11 -0.11)">
       <defs>
        <path d="M 44.390625 34.1875 
Q 47.5625 33.109375 50.5625 29.59375 
Q 53.5625 26.078125 56.59375 19.921875 
L 66.609375 0 
L 56 0 
L 46.6875 18.703125 
Q 43.0625 26.03125 39.671875 28.421875 
Q 36.28125 30.8125 30.421875 30.8125 
L 19.671875 30.8125 
L 19.671875 0 
L 9.8125 0 
L 9.8125 72.90625 
L 32.078125 72.90625 
Q 44.578125 72.90625 50.734375 67.671875 
Q 56.890625 62.453125 56.890625 51.90625 
Q 56.890625 45.015625 53.6875 40.46875 
Q 50.484375 35.9375 44.390625 34.1875 
z
M 19.671875 64.796875 
L 19.671875 38.921875 
L 32.078125 38.921875 
Q 39.203125 38.921875 42.84375 42.21875 
Q 46.484375 45.515625 46.484375 51.90625 
Q 46.484375 58.296875 42.84375 61.546875 
Q 39.203125 64.796875 32.078125 64.796875 
z
" id="DejaVuSans-82"/>
       </defs>
       <use xlink:href="#DejaVuSans-72"/>
       <use x="75.195312" xlink:href="#DejaVuSans-111"/>
       <use x="136.376953" xlink:href="#DejaVuSans-116"/>
       <use x="175.585938" xlink:href="#DejaVuSans-101"/>
       <use x="237.109375" xlink:href="#DejaVuSans-108"/>
       <use x="264.892578" xlink:href="#DejaVuSans-32"/>
       <use x="296.679688" xlink:href="#DejaVuSans-82"/>
       <use x="366.162109" xlink:href="#DejaVuSans-119"/>
       <use x="447.949219" xlink:href="#DejaVuSans-97"/>
       <use x="509.228516" xlink:href="#DejaVuSans-110"/>
       <use x="572.607422" xlink:href="#DejaVuSans-100"/>
       <use x="636.083984" xlink:href="#DejaVuSans-97"/>
      </g>
     </g>
    </g>
    <g id="ytick_8">
     <g id="text_18">
      <!-- Before Sunset -->
      <g style="fill:#262626;" transform="translate(171.186875 112.979084)scale(0.11 -0.11)">
       <use xlink:href="#DejaVuSans-66"/>
       <use x="68.603516" xlink:href="#DejaVuSans-101"/>
       <use x="130.126953" xlink:href="#DejaVuSans-102"/>
       <use x="165.332031" xlink:href="#DejaVuSans-111"/>
       <use x="226.513672" xlink:href="#DejaVuSans-114"/>
       <use x="265.376953" xlink:href="#DejaVuSans-101"/>
       <use x="326.900391" xlink:href="#DejaVuSans-32"/>
       <use x="358.6875" xlink:href="#DejaVuSans-83"/>
       <use x="422.164062" xlink:href="#DejaVuSans-117"/>
       <use x="485.542969" xlink:href="#DejaVuSans-110"/>
       <use x="548.921875" xlink:href="#DejaVuSans-115"/>
       <use x="601.021484" xlink:href="#DejaVuSans-101"/>
       <use x="662.544922" xlink:href="#DejaVuSans-116"/>
      </g>
     </g>
    </g>
    <g id="ytick_9">
     <g id="text_19">
      <!-- 3-Iron -->
      <g style="fill:#262626;" transform="translate(216.192344 124.509993)scale(0.11 -0.11)">
       <defs>
        <path d="M 40.578125 39.3125 
Q 47.65625 37.796875 51.625 33 
Q 55.609375 28.21875 55.609375 21.1875 
Q 55.609375 10.40625 48.1875 4.484375 
Q 40.765625 -1.421875 27.09375 -1.421875 
Q 22.515625 -1.421875 17.65625 -0.515625 
Q 12.796875 0.390625 7.625 2.203125 
L 7.625 11.71875 
Q 11.71875 9.328125 16.59375 8.109375 
Q 21.484375 6.890625 26.8125 6.890625 
Q 36.078125 6.890625 40.9375 10.546875 
Q 45.796875 14.203125 45.796875 21.1875 
Q 45.796875 27.640625 41.28125 31.265625 
Q 36.765625 34.90625 28.71875 34.90625 
L 20.21875 34.90625 
L 20.21875 43.015625 
L 29.109375 43.015625 
Q 36.375 43.015625 40.234375 45.921875 
Q 44.09375 48.828125 44.09375 54.296875 
Q 44.09375 59.90625 40.109375 62.90625 
Q 36.140625 65.921875 28.71875 65.921875 
Q 24.65625 65.921875 20.015625 65.03125 
Q 15.375 64.15625 9.8125 62.3125 
L 9.8125 71.09375 
Q 15.4375 72.65625 20.34375 73.4375 
Q 25.25 74.21875 29.59375 74.21875 
Q 40.828125 74.21875 47.359375 69.109375 
Q 53.90625 64.015625 53.90625 55.328125 
Q 53.90625 49.265625 50.4375 45.09375 
Q 46.96875 40.921875 40.578125 39.3125 
z
" id="DejaVuSans-51"/>
        <path d="M 4.890625 31.390625 
L 31.203125 31.390625 
L 31.203125 23.390625 
L 4.890625 23.390625 
z
" id="DejaVuSans-45"/>
        <path d="M 9.8125 72.90625 
L 19.671875 72.90625 
L 19.671875 0 
L 9.8125 0 
z
" id="DejaVuSans-73"/>
       </defs>
       <use xlink:href="#DejaVuSans-51"/>
       <use x="63.623047" xlink:href="#DejaVuSans-45"/>
       <use x="99.707031" xlink:href="#DejaVuSans-73"/>
       <use x="129.199219" xlink:href="#DejaVuSans-114"/>
       <use x="168.0625" xlink:href="#DejaVuSans-111"/>
       <use x="229.244141" xlink:href="#DejaVuSans-110"/>
      </g>
     </g>
    </g>
    <g id="ytick_10">
     <g id="text_20">
      <!-- Tae Guk Gi: The Brotherhood of War -->
      <g style="fill:#262626;" transform="translate(50.994687 136.040902)scale(0.11 -0.11)">
       <defs>
        <path d="M -0.296875 72.90625 
L 61.375 72.90625 
L 61.375 64.59375 
L 35.5 64.59375 
L 35.5 0 
L 25.59375 0 
L 25.59375 64.59375 
L -0.296875 64.59375 
z
" id="DejaVuSans-84"/>
        <path d="M 59.515625 10.40625 
L 59.515625 29.984375 
L 43.40625 29.984375 
L 43.40625 38.09375 
L 69.28125 38.09375 
L 69.28125 6.78125 
Q 63.578125 2.734375 56.6875 0.65625 
Q 49.8125 -1.421875 42 -1.421875 
Q 24.90625 -1.421875 15.25 8.5625 
Q 5.609375 18.5625 5.609375 36.375 
Q 5.609375 54.25 15.25 64.234375 
Q 24.90625 74.21875 42 74.21875 
Q 49.125 74.21875 55.546875 72.453125 
Q 61.96875 70.703125 67.390625 67.28125 
L 67.390625 56.78125 
Q 61.921875 61.421875 55.765625 63.765625 
Q 49.609375 66.109375 42.828125 66.109375 
Q 29.4375 66.109375 22.71875 58.640625 
Q 16.015625 51.171875 16.015625 36.375 
Q 16.015625 21.625 22.71875 14.15625 
Q 29.4375 6.6875 42.828125 6.6875 
Q 48.046875 6.6875 52.140625 7.59375 
Q 56.25 8.5 59.515625 10.40625 
z
" id="DejaVuSans-71"/>
        <path d="M 9.078125 75.984375 
L 18.109375 75.984375 
L 18.109375 31.109375 
L 44.921875 54.6875 
L 56.390625 54.6875 
L 27.390625 29.109375 
L 57.625 0 
L 45.90625 0 
L 18.109375 26.703125 
L 18.109375 0 
L 9.078125 0 
z
" id="DejaVuSans-107"/>
        <path d="M 11.71875 12.40625 
L 22.015625 12.40625 
L 22.015625 0 
L 11.71875 0 
z
M 11.71875 51.703125 
L 22.015625 51.703125 
L 22.015625 39.3125 
L 11.71875 39.3125 
z
" id="DejaVuSans-58"/>
        <path d="M 3.328125 72.90625 
L 13.28125 72.90625 
L 28.609375 11.28125 
L 43.890625 72.90625 
L 54.984375 72.90625 
L 70.3125 11.28125 
L 85.59375 72.90625 
L 95.609375 72.90625 
L 77.296875 0 
L 64.890625 0 
L 49.515625 63.28125 
L 33.984375 0 
L 21.578125 0 
z
" id="DejaVuSans-87"/>
       </defs>
       <use xlink:href="#DejaVuSans-84"/>
       <use x="44.583984" xlink:href="#DejaVuSans-97"/>
       <use x="105.863281" xlink:href="#DejaVuSans-101"/>
       <use x="167.386719" xlink:href="#DejaVuSans-32"/>
       <use x="199.173828" xlink:href="#DejaVuSans-71"/>
       <use x="276.664062" xlink:href="#DejaVuSans-117"/>
       <use x="340.042969" xlink:href="#DejaVuSans-107"/>
       <use x="397.953125" xlink:href="#DejaVuSans-32"/>
       <use x="429.740234" xlink:href="#DejaVuSans-71"/>
       <use x="507.230469" xlink:href="#DejaVuSans-105"/>
       <use x="535.013672" xlink:href="#DejaVuSans-58"/>
       <use x="568.705078" xlink:href="#DejaVuSans-32"/>
       <use x="600.492188" xlink:href="#DejaVuSans-84"/>
       <use x="661.576172" xlink:href="#DejaVuSans-104"/>
       <use x="724.955078" xlink:href="#DejaVuSans-101"/>
       <use x="786.478516" xlink:href="#DejaVuSans-32"/>
       <use x="818.265625" xlink:href="#DejaVuSans-66"/>
       <use x="886.869141" xlink:href="#DejaVuSans-114"/>
       <use x="925.732422" xlink:href="#DejaVuSans-111"/>
       <use x="986.914062" xlink:href="#DejaVuSans-116"/>
       <use x="1026.123047" xlink:href="#DejaVuSans-104"/>
       <use x="1089.501953" xlink:href="#DejaVuSans-101"/>
       <use x="1151.025391" xlink:href="#DejaVuSans-114"/>
       <use x="1190.388672" xlink:href="#DejaVuSans-104"/>
       <use x="1253.767578" xlink:href="#DejaVuSans-111"/>
       <use x="1314.949219" xlink:href="#DejaVuSans-111"/>
       <use x="1376.130859" xlink:href="#DejaVuSans-100"/>
       <use x="1439.607422" xlink:href="#DejaVuSans-32"/>
       <use x="1471.394531" xlink:href="#DejaVuSans-111"/>
       <use x="1532.576172" xlink:href="#DejaVuSans-102"/>
       <use x="1567.78125" xlink:href="#DejaVuSans-32"/>
       <use x="1599.568359" xlink:href="#DejaVuSans-87"/>
       <use x="1692.070312" xlink:href="#DejaVuSans-97"/>
       <use x="1753.349609" xlink:href="#DejaVuSans-114"/>
      </g>
     </g>
    </g>
    <g id="ytick_11">
     <g id="text_21">
      <!-- G.O.R.A. -->
      <g style="fill:#262626;" transform="translate(203.078281 147.571811)scale(0.11 -0.11)">
       <defs>
        <path d="M 10.6875 12.40625 
L 21 12.40625 
L 21 0 
L 10.6875 0 
z
" id="DejaVuSans-46"/>
        <path d="M 39.40625 66.21875 
Q 28.65625 66.21875 22.328125 58.203125 
Q 16.015625 50.203125 16.015625 36.375 
Q 16.015625 22.609375 22.328125 14.59375 
Q 28.65625 6.59375 39.40625 6.59375 
Q 50.140625 6.59375 56.421875 14.59375 
Q 62.703125 22.609375 62.703125 36.375 
Q 62.703125 50.203125 56.421875 58.203125 
Q 50.140625 66.21875 39.40625 66.21875 
z
M 39.40625 74.21875 
Q 54.734375 74.21875 63.90625 63.9375 
Q 73.09375 53.65625 73.09375 36.375 
Q 73.09375 19.140625 63.90625 8.859375 
Q 54.734375 -1.421875 39.40625 -1.421875 
Q 24.03125 -1.421875 14.8125 8.828125 
Q 5.609375 19.09375 5.609375 36.375 
Q 5.609375 53.65625 14.8125 63.9375 
Q 24.03125 74.21875 39.40625 74.21875 
z
" id="DejaVuSans-79"/>
        <path d="M 34.1875 63.1875 
L 20.796875 26.90625 
L 47.609375 26.90625 
z
M 28.609375 72.90625 
L 39.796875 72.90625 
L 67.578125 0 
L 57.328125 0 
L 50.6875 18.703125 
L 17.828125 18.703125 
L 11.1875 0 
L 0.78125 0 
z
" id="DejaVuSans-65"/>
       </defs>
       <use xlink:href="#DejaVuSans-71"/>
       <use x="77.490234" xlink:href="#DejaVuSans-46"/>
       <use x="109.277344" xlink:href="#DejaVuSans-79"/>
       <use x="183.988281" xlink:href="#DejaVuSans-46"/>
       <use x="215.775391" xlink:href="#DejaVuSans-82"/>
       <use x="281.632812" xlink:href="#DejaVuSans-46"/>
       <use x="313.419922" xlink:href="#DejaVuSans-65"/>
       <use x="380.078125" xlink:href="#DejaVuSans-46"/>
      </g>
     </g>
    </g>
    <g id="ytick_12">
     <g id="text_22">
      <!-- Kill Bill: Vol. 2 -->
      <g style="fill:#262626;" transform="translate(174.137969 159.10272)scale(0.11 -0.11)">
       <defs>
        <path d="M 28.609375 0 
L 0.78125 72.90625 
L 11.078125 72.90625 
L 34.1875 11.53125 
L 57.328125 72.90625 
L 67.578125 72.90625 
L 39.796875 0 
z
" id="DejaVuSans-86"/>
       </defs>
       <use xlink:href="#DejaVuSans-75"/>
       <use x="65.576172" xlink:href="#DejaVuSans-105"/>
       <use x="93.359375" xlink:href="#DejaVuSans-108"/>
       <use x="121.142578" xlink:href="#DejaVuSans-108"/>
       <use x="148.925781" xlink:href="#DejaVuSans-32"/>
       <use x="180.712891" xlink:href="#DejaVuSans-66"/>
       <use x="249.316406" xlink:href="#DejaVuSans-105"/>
       <use x="277.099609" xlink:href="#DejaVuSans-108"/>
       <use x="304.882812" xlink:href="#DejaVuSans-108"/>
       <use x="332.666016" xlink:href="#DejaVuSans-58"/>
       <use x="366.357422" xlink:href="#DejaVuSans-32"/>
       <use x="398.144531" xlink:href="#DejaVuSans-86"/>
       <use x="458.802734" xlink:href="#DejaVuSans-111"/>
       <use x="519.984375" xlink:href="#DejaVuSans-108"/>
       <use x="547.767578" xlink:href="#DejaVuSans-46"/>
       <use x="579.554688" xlink:href="#DejaVuSans-32"/>
       <use x="611.341797" xlink:href="#DejaVuSans-50"/>
      </g>
     </g>
    </g>
    <g id="ytick_13">
     <g id="text_23">
      <!-- The Sea Inside -->
      <g style="fill:#262626;" transform="translate(167.684062 170.633629)scale(0.11 -0.11)">
       <use xlink:href="#DejaVuSans-84"/>
       <use x="61.083984" xlink:href="#DejaVuSans-104"/>
       <use x="124.462891" xlink:href="#DejaVuSans-101"/>
       <use x="185.986328" xlink:href="#DejaVuSans-32"/>
       <use x="217.773438" xlink:href="#DejaVuSans-83"/>
       <use x="281.25" xlink:href="#DejaVuSans-101"/>
       <use x="342.773438" xlink:href="#DejaVuSans-97"/>
       <use x="404.052734" xlink:href="#DejaVuSans-32"/>
       <use x="435.839844" xlink:href="#DejaVuSans-73"/>
       <use x="465.332031" xlink:href="#DejaVuSans-110"/>
       <use x="528.710938" xlink:href="#DejaVuSans-115"/>
       <use x="580.810547" xlink:href="#DejaVuSans-105"/>
       <use x="608.59375" xlink:href="#DejaVuSans-100"/>
       <use x="672.070312" xlink:href="#DejaVuSans-101"/>
      </g>
     </g>
    </g>
    <g id="ytick_14">
     <g id="text_24">
      <!-- The Incredibles -->
      <g style="fill:#262626;" transform="translate(164.542188 182.164538)scale(0.11 -0.11)">
       <defs>
        <path d="M 48.78125 52.59375 
L 48.78125 44.1875 
Q 44.96875 46.296875 41.140625 47.34375 
Q 37.3125 48.390625 33.40625 48.390625 
Q 24.65625 48.390625 19.8125 42.84375 
Q 14.984375 37.3125 14.984375 27.296875 
Q 14.984375 17.28125 19.8125 11.734375 
Q 24.65625 6.203125 33.40625 6.203125 
Q 37.3125 6.203125 41.140625 7.25 
Q 44.96875 8.296875 48.78125 10.40625 
L 48.78125 2.09375 
Q 45.015625 0.34375 40.984375 -0.53125 
Q 36.96875 -1.421875 32.421875 -1.421875 
Q 20.0625 -1.421875 12.78125 6.34375 
Q 5.515625 14.109375 5.515625 27.296875 
Q 5.515625 40.671875 12.859375 48.328125 
Q 20.21875 56 33.015625 56 
Q 37.15625 56 41.109375 55.140625 
Q 45.0625 54.296875 48.78125 52.59375 
z
" id="DejaVuSans-99"/>
       </defs>
       <use xlink:href="#DejaVuSans-84"/>
       <use x="61.083984" xlink:href="#DejaVuSans-104"/>
       <use x="124.462891" xlink:href="#DejaVuSans-101"/>
       <use x="185.986328" xlink:href="#DejaVuSans-32"/>
       <use x="217.773438" xlink:href="#DejaVuSans-73"/>
       <use x="247.265625" xlink:href="#DejaVuSans-110"/>
       <use x="310.644531" xlink:href="#DejaVuSans-99"/>
       <use x="365.625" xlink:href="#DejaVuSans-114"/>
       <use x="404.488281" xlink:href="#DejaVuSans-101"/>
       <use x="466.011719" xlink:href="#DejaVuSans-100"/>
       <use x="529.488281" xlink:href="#DejaVuSans-105"/>
       <use x="557.271484" xlink:href="#DejaVuSans-98"/>
       <use x="620.748047" xlink:href="#DejaVuSans-108"/>
       <use x="648.53125" xlink:href="#DejaVuSans-101"/>
       <use x="710.054688" xlink:href="#DejaVuSans-115"/>
      </g>
     </g>
    </g>
    <g id="ytick_15">
     <g id="text_25">
      <!-- The Chorus -->
      <g style="fill:#262626;" transform="translate(185.820312 193.695447)scale(0.11 -0.11)">
       <use xlink:href="#DejaVuSans-84"/>
       <use x="61.083984" xlink:href="#DejaVuSans-104"/>
       <use x="124.462891" xlink:href="#DejaVuSans-101"/>
       <use x="185.986328" xlink:href="#DejaVuSans-32"/>
       <use x="217.773438" xlink:href="#DejaVuSans-67"/>
       <use x="287.597656" xlink:href="#DejaVuSans-104"/>
       <use x="350.976562" xlink:href="#DejaVuSans-111"/>
       <use x="412.158203" xlink:href="#DejaVuSans-114"/>
       <use x="453.271484" xlink:href="#DejaVuSans-117"/>
       <use x="516.650391" xlink:href="#DejaVuSans-115"/>
      </g>
     </g>
    </g>
    <g id="ytick_16">
     <g id="text_26">
      <!-- Shaun of the Dead -->
      <g style="fill:#262626;" transform="translate(145.637656 205.226357)scale(0.11 -0.11)">
       <use xlink:href="#DejaVuSans-83"/>
       <use x="63.476562" xlink:href="#DejaVuSans-104"/>
       <use x="126.855469" xlink:href="#DejaVuSans-97"/>
       <use x="188.134766" xlink:href="#DejaVuSans-117"/>
       <use x="251.513672" xlink:href="#DejaVuSans-110"/>
       <use x="314.892578" xlink:href="#DejaVuSans-32"/>
       <use x="346.679688" xlink:href="#DejaVuSans-111"/>
       <use x="407.861328" xlink:href="#DejaVuSans-102"/>
       <use x="443.066406" xlink:href="#DejaVuSans-32"/>
       <use x="474.853516" xlink:href="#DejaVuSans-116"/>
       <use x="514.0625" xlink:href="#DejaVuSans-104"/>
       <use x="577.441406" xlink:href="#DejaVuSans-101"/>
       <use x="638.964844" xlink:href="#DejaVuSans-32"/>
       <use x="670.751953" xlink:href="#DejaVuSans-68"/>
       <use x="747.753906" xlink:href="#DejaVuSans-101"/>
       <use x="809.277344" xlink:href="#DejaVuSans-97"/>
       <use x="870.556641" xlink:href="#DejaVuSans-100"/>
      </g>
     </g>
    </g>
    <g id="ytick_17">
     <g id="text_27">
      <!-- Head-On -->
      <g style="fill:#262626;" transform="translate(199.714687 216.757266)scale(0.11 -0.11)">
       <use xlink:href="#DejaVuSans-72"/>
       <use x="75.195312" xlink:href="#DejaVuSans-101"/>
       <use x="136.71875" xlink:href="#DejaVuSans-97"/>
       <use x="197.998047" xlink:href="#DejaVuSans-100"/>
       <use x="261.474609" xlink:href="#DejaVuSans-45"/>
       <use x="300.308594" xlink:href="#DejaVuSans-79"/>
       <use x="379.019531" xlink:href="#DejaVuSans-110"/>
      </g>
     </g>
    </g>
    <g id="ytick_18">
     <g id="text_28">
      <!-- Harry Potter and the Prisoner of Azkaban -->
      <g style="fill:#262626;" transform="translate(23.1475 228.288175)scale(0.11 -0.11)">
       <defs>
        <path d="M 19.671875 64.796875 
L 19.671875 37.40625 
L 32.078125 37.40625 
Q 38.96875 37.40625 42.71875 40.96875 
Q 46.484375 44.53125 46.484375 51.125 
Q 46.484375 57.671875 42.71875 61.234375 
Q 38.96875 64.796875 32.078125 64.796875 
z
M 9.8125 72.90625 
L 32.078125 72.90625 
Q 44.34375 72.90625 50.609375 67.359375 
Q 56.890625 61.8125 56.890625 51.125 
Q 56.890625 40.328125 50.609375 34.8125 
Q 44.34375 29.296875 32.078125 29.296875 
L 19.671875 29.296875 
L 19.671875 0 
L 9.8125 0 
z
" id="DejaVuSans-80"/>
        <path d="M 5.515625 54.6875 
L 48.1875 54.6875 
L 48.1875 46.484375 
L 14.40625 7.171875 
L 48.1875 7.171875 
L 48.1875 0 
L 4.296875 0 
L 4.296875 8.203125 
L 38.09375 47.515625 
L 5.515625 47.515625 
z
" id="DejaVuSans-122"/>
       </defs>
       <use xlink:href="#DejaVuSans-72"/>
       <use x="75.195312" xlink:href="#DejaVuSans-97"/>
       <use x="136.474609" xlink:href="#DejaVuSans-114"/>
       <use x="175.837891" xlink:href="#DejaVuSans-114"/>
       <use x="216.951172" xlink:href="#DejaVuSans-121"/>
       <use x="276.130859" xlink:href="#DejaVuSans-32"/>
       <use x="307.917969" xlink:href="#DejaVuSans-80"/>
       <use x="364.595703" xlink:href="#DejaVuSans-111"/>
       <use x="425.777344" xlink:href="#DejaVuSans-116"/>
       <use x="464.986328" xlink:href="#DejaVuSans-116"/>
       <use x="504.195312" xlink:href="#DejaVuSans-101"/>
       <use x="565.71875" xlink:href="#DejaVuSans-114"/>
       <use x="606.832031" xlink:href="#DejaVuSans-32"/>
       <use x="638.619141" xlink:href="#DejaVuSans-97"/>
       <use x="699.898438" xlink:href="#DejaVuSans-110"/>
       <use x="763.277344" xlink:href="#DejaVuSans-100"/>
       <use x="826.753906" xlink:href="#DejaVuSans-32"/>
       <use x="858.541016" xlink:href="#DejaVuSans-116"/>
       <use x="897.75" xlink:href="#DejaVuSans-104"/>
       <use x="961.128906" xlink:href="#DejaVuSans-101"/>
       <use x="1022.652344" xlink:href="#DejaVuSans-32"/>
       <use x="1054.439453" xlink:href="#DejaVuSans-80"/>
       <use x="1112.992188" xlink:href="#DejaVuSans-114"/>
       <use x="1154.105469" xlink:href="#DejaVuSans-105"/>
       <use x="1181.888672" xlink:href="#DejaVuSans-115"/>
       <use x="1233.988281" xlink:href="#DejaVuSans-111"/>
       <use x="1295.169922" xlink:href="#DejaVuSans-110"/>
       <use x="1358.548828" xlink:href="#DejaVuSans-101"/>
       <use x="1420.072266" xlink:href="#DejaVuSans-114"/>
       <use x="1461.185547" xlink:href="#DejaVuSans-32"/>
       <use x="1492.972656" xlink:href="#DejaVuSans-111"/>
       <use x="1554.154297" xlink:href="#DejaVuSans-102"/>
       <use x="1589.359375" xlink:href="#DejaVuSans-32"/>
       <use x="1621.146484" xlink:href="#DejaVuSans-65"/>
       <use x="1689.554688" xlink:href="#DejaVuSans-122"/>
       <use x="1742.044922" xlink:href="#DejaVuSans-107"/>
       <use x="1798.205078" xlink:href="#DejaVuSans-97"/>
       <use x="1859.484375" xlink:href="#DejaVuSans-98"/>
       <use x="1922.960938" xlink:href="#DejaVuSans-97"/>
       <use x="1984.240234" xlink:href="#DejaVuSans-110"/>
      </g>
     </g>
    </g>
    <g id="ytick_19">
     <g id="text_29">
      <!-- Veer-Zaara -->
      <g style="fill:#262626;" transform="translate(188.102812 239.819084)scale(0.11 -0.11)">
       <defs>
        <path d="M 5.609375 72.90625 
L 62.890625 72.90625 
L 62.890625 65.375 
L 16.796875 8.296875 
L 64.015625 8.296875 
L 64.015625 0 
L 4.5 0 
L 4.5 7.515625 
L 50.59375 64.59375 
L 5.609375 64.59375 
z
" id="DejaVuSans-90"/>
       </defs>
       <use xlink:href="#DejaVuSans-86"/>
       <use x="60.658203" xlink:href="#DejaVuSans-101"/>
       <use x="122.181641" xlink:href="#DejaVuSans-101"/>
       <use x="183.705078" xlink:href="#DejaVuSans-114"/>
       <use x="218.443359" xlink:href="#DejaVuSans-45"/>
       <use x="254.527344" xlink:href="#DejaVuSans-90"/>
       <use x="323.033203" xlink:href="#DejaVuSans-97"/>
       <use x="384.3125" xlink:href="#DejaVuSans-97"/>
       <use x="445.591797" xlink:href="#DejaVuSans-114"/>
       <use x="486.705078" xlink:href="#DejaVuSans-97"/>
      </g>
     </g>
    </g>
    <g id="ytick_20">
     <g id="text_30">
      <!-- The Notebook -->
      <g style="fill:#262626;" transform="translate(171.571875 251.349993)scale(0.11 -0.11)">
       <use xlink:href="#DejaVuSans-84"/>
       <use x="61.083984" xlink:href="#DejaVuSans-104"/>
       <use x="124.462891" xlink:href="#DejaVuSans-101"/>
       <use x="185.986328" xlink:href="#DejaVuSans-32"/>
       <use x="217.773438" xlink:href="#DejaVuSans-78"/>
       <use x="292.578125" xlink:href="#DejaVuSans-111"/>
       <use x="353.759766" xlink:href="#DejaVuSans-116"/>
       <use x="392.96875" xlink:href="#DejaVuSans-101"/>
       <use x="454.492188" xlink:href="#DejaVuSans-98"/>
       <use x="517.96875" xlink:href="#DejaVuSans-111"/>
       <use x="579.150391" xlink:href="#DejaVuSans-111"/>
       <use x="640.332031" xlink:href="#DejaVuSans-107"/>
      </g>
     </g>
    </g>
    <g id="ytick_21">
     <g id="text_31">
      <!-- The Motorcycle Diaries -->
      <g style="fill:#262626;" transform="translate(122.616719 262.880902)scale(0.11 -0.11)">
       <use xlink:href="#DejaVuSans-84"/>
       <use x="61.083984" xlink:href="#DejaVuSans-104"/>
       <use x="124.462891" xlink:href="#DejaVuSans-101"/>
       <use x="185.986328" xlink:href="#DejaVuSans-32"/>
       <use x="217.773438" xlink:href="#DejaVuSans-77"/>
       <use x="304.052734" xlink:href="#DejaVuSans-111"/>
       <use x="365.234375" xlink:href="#DejaVuSans-116"/>
       <use x="404.443359" xlink:href="#DejaVuSans-111"/>
       <use x="465.625" xlink:href="#DejaVuSans-114"/>
       <use x="504.488281" xlink:href="#DejaVuSans-99"/>
       <use x="559.46875" xlink:href="#DejaVuSans-121"/>
       <use x="618.648438" xlink:href="#DejaVuSans-99"/>
       <use x="673.628906" xlink:href="#DejaVuSans-108"/>
       <use x="701.412109" xlink:href="#DejaVuSans-101"/>
       <use x="762.935547" xlink:href="#DejaVuSans-32"/>
       <use x="794.722656" xlink:href="#DejaVuSans-68"/>
       <use x="871.724609" xlink:href="#DejaVuSans-105"/>
       <use x="899.507812" xlink:href="#DejaVuSans-97"/>
       <use x="960.787109" xlink:href="#DejaVuSans-114"/>
       <use x="1001.900391" xlink:href="#DejaVuSans-105"/>
       <use x="1029.683594" xlink:href="#DejaVuSans-101"/>
       <use x="1091.207031" xlink:href="#DejaVuSans-115"/>
      </g>
     </g>
    </g>
    <g id="ytick_22">
     <g id="text_32">
      <!-- Crash -->
      <g style="fill:#262626;" transform="translate(216.735469 274.411811)scale(0.11 -0.11)">
       <use xlink:href="#DejaVuSans-67"/>
       <use x="69.824219" xlink:href="#DejaVuSans-114"/>
       <use x="110.9375" xlink:href="#DejaVuSans-97"/>
       <use x="172.216797" xlink:href="#DejaVuSans-115"/>
       <use x="224.316406" xlink:href="#DejaVuSans-104"/>
      </g>
     </g>
    </g>
    <g id="ytick_23">
     <g id="text_33">
      <!-- Kung Fu Hustle -->
      <g style="fill:#262626;" transform="translate(165.99625 285.94272)scale(0.11 -0.11)">
       <defs>
        <path d="M 9.8125 72.90625 
L 51.703125 72.90625 
L 51.703125 64.59375 
L 19.671875 64.59375 
L 19.671875 43.109375 
L 48.578125 43.109375 
L 48.578125 34.8125 
L 19.671875 34.8125 
L 19.671875 0 
L 9.8125 0 
z
" id="DejaVuSans-70"/>
       </defs>
       <use xlink:href="#DejaVuSans-75"/>
       <use x="60.576172" xlink:href="#DejaVuSans-117"/>
       <use x="123.955078" xlink:href="#DejaVuSans-110"/>
       <use x="187.333984" xlink:href="#DejaVuSans-103"/>
       <use x="250.810547" xlink:href="#DejaVuSans-32"/>
       <use x="282.597656" xlink:href="#DejaVuSans-70"/>
       <use x="334.617188" xlink:href="#DejaVuSans-117"/>
       <use x="397.996094" xlink:href="#DejaVuSans-32"/>
       <use x="429.783203" xlink:href="#DejaVuSans-72"/>
       <use x="504.978516" xlink:href="#DejaVuSans-117"/>
       <use x="568.357422" xlink:href="#DejaVuSans-115"/>
       <use x="620.457031" xlink:href="#DejaVuSans-116"/>
       <use x="659.666016" xlink:href="#DejaVuSans-108"/>
       <use x="687.449219" xlink:href="#DejaVuSans-101"/>
      </g>
     </g>
    </g>
    <g id="ytick_24">
     <g id="text_34">
      <!-- The Bourne Supremacy -->
      <g style="fill:#262626;" transform="translate(119.6175 297.473629)scale(0.11 -0.11)">
       <use xlink:href="#DejaVuSans-84"/>
       <use x="61.083984" xlink:href="#DejaVuSans-104"/>
       <use x="124.462891" xlink:href="#DejaVuSans-101"/>
       <use x="185.986328" xlink:href="#DejaVuSans-32"/>
       <use x="217.773438" xlink:href="#DejaVuSans-66"/>
       <use x="286.376953" xlink:href="#DejaVuSans-111"/>
       <use x="347.558594" xlink:href="#DejaVuSans-117"/>
       <use x="410.9375" xlink:href="#DejaVuSans-114"/>
       <use x="450.300781" xlink:href="#DejaVuSans-110"/>
       <use x="513.679688" xlink:href="#DejaVuSans-101"/>
       <use x="575.203125" xlink:href="#DejaVuSans-32"/>
       <use x="606.990234" xlink:href="#DejaVuSans-83"/>
       <use x="670.466797" xlink:href="#DejaVuSans-117"/>
       <use x="733.845703" xlink:href="#DejaVuSans-112"/>
       <use x="797.322266" xlink:href="#DejaVuSans-114"/>
       <use x="836.185547" xlink:href="#DejaVuSans-101"/>
       <use x="897.708984" xlink:href="#DejaVuSans-109"/>
       <use x="995.121094" xlink:href="#DejaVuSans-97"/>
       <use x="1056.400391" xlink:href="#DejaVuSans-99"/>
       <use x="1111.380859" xlink:href="#DejaVuSans-121"/>
      </g>
     </g>
    </g>
    <g id="ytick_25">
     <g id="text_35">
      <!-- The Machinist -->
      <g style="fill:#262626;" transform="translate(172.049688 309.004538)scale(0.11 -0.11)">
       <use xlink:href="#DejaVuSans-84"/>
       <use x="61.083984" xlink:href="#DejaVuSans-104"/>
       <use x="124.462891" xlink:href="#DejaVuSans-101"/>
       <use x="185.986328" xlink:href="#DejaVuSans-32"/>
       <use x="217.773438" xlink:href="#DejaVuSans-77"/>
       <use x="304.052734" xlink:href="#DejaVuSans-97"/>
       <use x="365.332031" xlink:href="#DejaVuSans-99"/>
       <use x="420.3125" xlink:href="#DejaVuSans-104"/>
       <use x="483.691406" xlink:href="#DejaVuSans-105"/>
       <use x="511.474609" xlink:href="#DejaVuSans-110"/>
       <use x="574.853516" xlink:href="#DejaVuSans-105"/>
       <use x="602.636719" xlink:href="#DejaVuSans-115"/>
       <use x="654.736328" xlink:href="#DejaVuSans-116"/>
      </g>
     </g>
    </g>
    <g id="ytick_26">
     <g id="text_36">
      <!-- Ray -->
      <g style="fill:#262626;" transform="translate(227.73375 320.535447)scale(0.11 -0.11)">
       <use xlink:href="#DejaVuSans-82"/>
       <use x="67.232422" xlink:href="#DejaVuSans-97"/>
       <use x="128.511719" xlink:href="#DejaVuSans-121"/>
      </g>
     </g>
    </g>
    <g id="ytick_27">
     <g id="text_37">
      <!-- Man on Fire -->
      <g style="fill:#262626;" transform="translate(184.856094 332.066357)scale(0.11 -0.11)">
       <use xlink:href="#DejaVuSans-77"/>
       <use x="86.279297" xlink:href="#DejaVuSans-97"/>
       <use x="147.558594" xlink:href="#DejaVuSans-110"/>
       <use x="210.9375" xlink:href="#DejaVuSans-32"/>
       <use x="242.724609" xlink:href="#DejaVuSans-111"/>
       <use x="303.90625" xlink:href="#DejaVuSans-110"/>
       <use x="367.285156" xlink:href="#DejaVuSans-32"/>
       <use x="399.072266" xlink:href="#DejaVuSans-70"/>
       <use x="449.341797" xlink:href="#DejaVuSans-105"/>
       <use x="477.125" xlink:href="#DejaVuSans-114"/>
       <use x="515.988281" xlink:href="#DejaVuSans-101"/>
      </g>
     </g>
    </g>
    <g id="ytick_28">
     <g id="text_38">
      <!-- Finding Neverland -->
      <g style="fill:#262626;" transform="translate(148.784687 343.597266)scale(0.11 -0.11)">
       <use xlink:href="#DejaVuSans-70"/>
       <use x="50.269531" xlink:href="#DejaVuSans-105"/>
       <use x="78.052734" xlink:href="#DejaVuSans-110"/>
       <use x="141.431641" xlink:href="#DejaVuSans-100"/>
       <use x="204.908203" xlink:href="#DejaVuSans-105"/>
       <use x="232.691406" xlink:href="#DejaVuSans-110"/>
       <use x="296.070312" xlink:href="#DejaVuSans-103"/>
       <use x="359.546875" xlink:href="#DejaVuSans-32"/>
       <use x="391.333984" xlink:href="#DejaVuSans-78"/>
       <use x="466.138672" xlink:href="#DejaVuSans-101"/>
       <use x="527.662109" xlink:href="#DejaVuSans-118"/>
       <use x="586.841797" xlink:href="#DejaVuSans-101"/>
       <use x="648.365234" xlink:href="#DejaVuSans-114"/>
       <use x="689.478516" xlink:href="#DejaVuSans-108"/>
       <use x="717.261719" xlink:href="#DejaVuSans-97"/>
       <use x="778.541016" xlink:href="#DejaVuSans-110"/>
       <use x="841.919922" xlink:href="#DejaVuSans-100"/>
      </g>
     </g>
    </g>
    <g id="ytick_29">
     <g id="text_39">
      <!-- Dead Man's Shoes -->
      <g style="fill:#262626;" transform="translate(147.285937 355.128175)scale(0.11 -0.11)">
       <use xlink:href="#DejaVuSans-68"/>
       <use x="77.001953" xlink:href="#DejaVuSans-101"/>
       <use x="138.525391" xlink:href="#DejaVuSans-97"/>
       <use x="199.804688" xlink:href="#DejaVuSans-100"/>
       <use x="263.28125" xlink:href="#DejaVuSans-32"/>
       <use x="295.068359" xlink:href="#DejaVuSans-77"/>
       <use x="381.347656" xlink:href="#DejaVuSans-97"/>
       <use x="442.626953" xlink:href="#DejaVuSans-110"/>
       <use x="506.005859" xlink:href="#DejaVuSans-39"/>
       <use x="533.496094" xlink:href="#DejaVuSans-115"/>
       <use x="585.595703" xlink:href="#DejaVuSans-32"/>
       <use x="617.382812" xlink:href="#DejaVuSans-83"/>
       <use x="680.859375" xlink:href="#DejaVuSans-104"/>
       <use x="744.238281" xlink:href="#DejaVuSans-111"/>
       <use x="805.419922" xlink:href="#DejaVuSans-101"/>
       <use x="866.943359" xlink:href="#DejaVuSans-115"/>
      </g>
     </g>
    </g>
    <g id="ytick_30">
     <g id="text_40">
      <!-- Saw -->
      <g style="fill:#262626;" transform="translate(225.660937 366.659084)scale(0.11 -0.11)">
       <use xlink:href="#DejaVuSans-83"/>
       <use x="63.476562" xlink:href="#DejaVuSans-97"/>
       <use x="124.755859" xlink:href="#DejaVuSans-119"/>
      </g>
     </g>
    </g>
    <g id="ytick_31">
     <g id="text_41">
      <!-- Mysterious Skin -->
      <g style="fill:#262626;" transform="translate(161.682187 378.189993)scale(0.11 -0.11)">
       <use xlink:href="#DejaVuSans-77"/>
       <use x="86.279297" xlink:href="#DejaVuSans-121"/>
       <use x="145.458984" xlink:href="#DejaVuSans-115"/>
       <use x="197.558594" xlink:href="#DejaVuSans-116"/>
       <use x="236.767578" xlink:href="#DejaVuSans-101"/>
       <use x="298.291016" xlink:href="#DejaVuSans-114"/>
       <use x="339.404297" xlink:href="#DejaVuSans-105"/>
       <use x="367.1875" xlink:href="#DejaVuSans-111"/>
       <use x="428.369141" xlink:href="#DejaVuSans-117"/>
       <use x="491.748047" xlink:href="#DejaVuSans-115"/>
       <use x="543.847656" xlink:href="#DejaVuSans-32"/>
       <use x="575.634766" xlink:href="#DejaVuSans-83"/>
       <use x="639.111328" xlink:href="#DejaVuSans-107"/>
       <use x="697.021484" xlink:href="#DejaVuSans-105"/>
       <use x="724.804688" xlink:href="#DejaVuSans-110"/>
      </g>
     </g>
    </g>
    <g id="ytick_32">
     <g id="text_42">
      <!-- A Very Long Engagement -->
      <g style="fill:#262626;" transform="translate(109.109062 389.720902)scale(0.11 -0.11)">
       <defs>
        <path d="M 9.8125 72.90625 
L 19.671875 72.90625 
L 19.671875 8.296875 
L 55.171875 8.296875 
L 55.171875 0 
L 9.8125 0 
z
" id="DejaVuSans-76"/>
       </defs>
       <use xlink:href="#DejaVuSans-65"/>
       <use x="68.408203" xlink:href="#DejaVuSans-32"/>
       <use x="100.195312" xlink:href="#DejaVuSans-86"/>
       <use x="160.853516" xlink:href="#DejaVuSans-101"/>
       <use x="222.376953" xlink:href="#DejaVuSans-114"/>
       <use x="263.490234" xlink:href="#DejaVuSans-121"/>
       <use x="322.669922" xlink:href="#DejaVuSans-32"/>
       <use x="354.457031" xlink:href="#DejaVuSans-76"/>
       <use x="408.419922" xlink:href="#DejaVuSans-111"/>
       <use x="469.601562" xlink:href="#DejaVuSans-110"/>
       <use x="532.980469" xlink:href="#DejaVuSans-103"/>
       <use x="596.457031" xlink:href="#DejaVuSans-32"/>
       <use x="628.244141" xlink:href="#DejaVuSans-69"/>
       <use x="691.427734" xlink:href="#DejaVuSans-110"/>
       <use x="754.806641" xlink:href="#DejaVuSans-103"/>
       <use x="818.283203" xlink:href="#DejaVuSans-97"/>
       <use x="879.5625" xlink:href="#DejaVuSans-103"/>
       <use x="943.039062" xlink:href="#DejaVuSans-101"/>
       <use x="1004.5625" xlink:href="#DejaVuSans-109"/>
       <use x="1101.974609" xlink:href="#DejaVuSans-101"/>
       <use x="1163.498047" xlink:href="#DejaVuSans-110"/>
       <use x="1226.876953" xlink:href="#DejaVuSans-116"/>
      </g>
     </g>
    </g>
    <g id="ytick_33">
     <g id="text_43">
      <!-- The Butterfly Effect -->
      <g style="fill:#262626;" transform="translate(141.234219 401.251811)scale(0.11 -0.11)">
       <use xlink:href="#DejaVuSans-84"/>
       <use x="61.083984" xlink:href="#DejaVuSans-104"/>
       <use x="124.462891" xlink:href="#DejaVuSans-101"/>
       <use x="185.986328" xlink:href="#DejaVuSans-32"/>
       <use x="217.773438" xlink:href="#DejaVuSans-66"/>
       <use x="286.376953" xlink:href="#DejaVuSans-117"/>
       <use x="349.755859" xlink:href="#DejaVuSans-116"/>
       <use x="388.964844" xlink:href="#DejaVuSans-116"/>
       <use x="428.173828" xlink:href="#DejaVuSans-101"/>
       <use x="489.697266" xlink:href="#DejaVuSans-114"/>
       <use x="530.810547" xlink:href="#DejaVuSans-102"/>
       <use x="566.015625" xlink:href="#DejaVuSans-108"/>
       <use x="593.798828" xlink:href="#DejaVuSans-121"/>
       <use x="652.978516" xlink:href="#DejaVuSans-32"/>
       <use x="684.765625" xlink:href="#DejaVuSans-69"/>
       <use x="747.949219" xlink:href="#DejaVuSans-102"/>
       <use x="783.154297" xlink:href="#DejaVuSans-102"/>
       <use x="818.359375" xlink:href="#DejaVuSans-101"/>
       <use x="879.882812" xlink:href="#DejaVuSans-99"/>
       <use x="934.863281" xlink:href="#DejaVuSans-116"/>
      </g>
     </g>
    </g>
    <g id="text_44">
     <!-- movie_name of 2004 -->
     <g style="fill:#262626;" transform="translate(16.318125 275.886562)rotate(-90)scale(0.12 -0.12)">
      <defs>
       <path d="M 50.984375 -16.609375 
L 50.984375 -23.578125 
L -0.984375 -23.578125 
L -0.984375 -16.609375 
z
" id="DejaVuSans-95"/>
       <path d="M 37.796875 64.3125 
L 12.890625 25.390625 
L 37.796875 25.390625 
z
M 35.203125 72.90625 
L 47.609375 72.90625 
L 47.609375 25.390625 
L 58.015625 25.390625 
L 58.015625 17.1875 
L 47.609375 17.1875 
L 47.609375 0 
L 37.796875 0 
L 37.796875 17.1875 
L 4.890625 17.1875 
L 4.890625 26.703125 
z
" id="DejaVuSans-52"/>
      </defs>
      <use xlink:href="#DejaVuSans-109"/>
      <use x="97.412109" xlink:href="#DejaVuSans-111"/>
      <use x="158.59375" xlink:href="#DejaVuSans-118"/>
      <use x="217.773438" xlink:href="#DejaVuSans-105"/>
      <use x="245.556641" xlink:href="#DejaVuSans-101"/>
      <use x="307.080078" xlink:href="#DejaVuSans-95"/>
      <use x="357.080078" xlink:href="#DejaVuSans-110"/>
      <use x="420.458984" xlink:href="#DejaVuSans-97"/>
      <use x="481.738281" xlink:href="#DejaVuSans-109"/>
      <use x="579.150391" xlink:href="#DejaVuSans-101"/>
      <use x="640.673828" xlink:href="#DejaVuSans-32"/>
      <use x="672.460938" xlink:href="#DejaVuSans-111"/>
      <use x="733.642578" xlink:href="#DejaVuSans-102"/>
      <use x="768.847656" xlink:href="#DejaVuSans-32"/>
      <use x="800.634766" xlink:href="#DejaVuSans-50"/>
      <use x="864.257812" xlink:href="#DejaVuSans-48"/>
      <use x="927.880859" xlink:href="#DejaVuSans-48"/>
      <use x="991.503906" xlink:href="#DejaVuSans-52"/>
     </g>
    </g>
   </g>
   <g id="patch_3">
    <path clip-path="url(#p0cfaf6b047)" d="M 257.881094 23.471216 
L 556.809665 23.471216 
L 556.809665 32.695943 
L 257.881094 32.695943 
z
" style="fill:#ea96a3;stroke:#ffffff;stroke-linejoin:miter;"/>
   </g>
   <g id="patch_4">
    <path clip-path="url(#p0cfaf6b047)" d="M 257.881094 35.002125 
L 781.006094 35.002125 
L 781.006094 44.226852 
L 257.881094 44.226852 
z
" style="fill:#e99793;stroke:#ffffff;stroke-linejoin:miter;"/>
   </g>
   <g id="patch_5">
    <path clip-path="url(#p0cfaf6b047)" d="M 257.881094 46.533034 
L 689.666808 46.533034 
L 689.666808 55.757761 
L 257.881094 55.757761 
z
" style="fill:#e69578;stroke:#ffffff;stroke-linejoin:miter;"/>
   </g>
   <g id="patch_6">
    <path clip-path="url(#p0cfaf6b047)" d="M 257.881094 58.063943 
L 587.256094 58.063943 
L 587.256094 67.28867 
L 257.881094 67.28867 
z
" style="fill:#dc924e;stroke:#ffffff;stroke-linejoin:miter;"/>
   </g>
   <g id="patch_7">
    <path clip-path="url(#p0cfaf6b047)" d="M 257.881094 69.594852 
L 648.148951 69.594852 
L 648.148951 78.81958 
L 257.881094 78.81958 
z
" style="fill:#cc974c;stroke:#ffffff;stroke-linejoin:miter;"/>
   </g>
   <g id="patch_8">
    <path clip-path="url(#p0cfaf6b047)" d="M 257.881094 81.125761 
L 623.238237 81.125761 
L 623.238237 90.350489 
L 257.881094 90.350489 
z
" style="fill:#bf9a4a;stroke:#ffffff;stroke-linejoin:miter;"/>
   </g>
   <g id="patch_9">
    <path clip-path="url(#p0cfaf6b047)" d="M 257.881094 92.65667 
L 592.791808 92.65667 
L 592.791808 101.881398 
L 257.881094 101.881398 
z
" style="fill:#b39d48;stroke:#ffffff;stroke-linejoin:miter;"/>
   </g>
   <g id="patch_10">
    <path clip-path="url(#p0cfaf6b047)" d="M 257.881094 104.18758 
L 479.309665 104.18758 
L 479.309665 113.412307 
L 257.881094 113.412307 
z
" style="fill:#a79f46;stroke:#ffffff;stroke-linejoin:miter;"/>
   </g>
   <g id="patch_11">
    <path clip-path="url(#p0cfaf6b047)" d="M 257.881094 115.718489 
L 501.452522 115.718489 
L 501.452522 124.943216 
L 257.881094 124.943216 
z
" style="fill:#9ba146;stroke:#ffffff;stroke-linejoin:miter;"/>
   </g>
   <g id="patch_12">
    <path clip-path="url(#p0cfaf6b047)" d="M 257.881094 127.249398 
L 645.381094 127.249398 
L 645.381094 136.474125 
L 257.881094 136.474125 
z
" style="fill:#8ea546;stroke:#ffffff;stroke-linejoin:miter;"/>
   </g>
   <g id="patch_13">
    <path clip-path="url(#p0cfaf6b047)" d="M 257.881094 138.780307 
L 609.398951 138.780307 
L 609.398951 148.005034 
L 257.881094 148.005034 
z
" style="fill:#7da947;stroke:#ffffff;stroke-linejoin:miter;"/>
   </g>
   <g id="patch_14">
    <path clip-path="url(#p0cfaf6b047)" d="M 257.881094 150.311216 
L 637.077522 150.311216 
L 637.077522 159.535943 
L 257.881094 159.535943 
z
" style="fill:#60ae47;stroke:#ffffff;stroke-linejoin:miter;"/>
   </g>
   <g id="patch_15">
    <path clip-path="url(#p0cfaf6b047)" d="M 257.881094 161.842125 
L 606.631094 161.842125 
L 606.631094 171.066852 
L 257.881094 171.066852 
z
" style="fill:#48b067;stroke:#ffffff;stroke-linejoin:miter;"/>
   </g>
   <g id="patch_16">
    <path clip-path="url(#p0cfaf6b047)" d="M 257.881094 173.373034 
L 576.184665 173.373034 
L 576.184665 182.597761 
L 257.881094 182.597761 
z
" style="fill:#49ae7f;stroke:#ffffff;stroke-linejoin:miter;"/>
   </g>
   <g id="patch_17">
    <path clip-path="url(#p0cfaf6b047)" d="M 257.881094 184.903943 
L 526.363237 184.903943 
L 526.363237 194.12867 
L 257.881094 194.12867 
z
" style="fill:#4aad8d;stroke:#ffffff;stroke-linejoin:miter;"/>
   </g>
   <g id="patch_18">
    <path clip-path="url(#p0cfaf6b047)" d="M 257.881094 196.434852 
L 531.898951 196.434852 
L 531.898951 205.65958 
L 257.881094 205.65958 
z
" style="fill:#4aac98;stroke:#ffffff;stroke-linejoin:miter;"/>
   </g>
   <g id="patch_19">
    <path clip-path="url(#p0cfaf6b047)" d="M 257.881094 207.965761 
L 592.791808 207.965761 
L 592.791808 217.190489 
L 257.881094 217.190489 
z
" style="fill:#4baca0;stroke:#ffffff;stroke-linejoin:miter;"/>
   </g>
   <g id="patch_20">
    <path clip-path="url(#p0cfaf6b047)" d="M 257.881094 219.49667 
L 650.916808 219.49667 
L 650.916808 228.721398 
L 257.881094 228.721398 
z
" style="fill:#4baba8;stroke:#ffffff;stroke-linejoin:miter;"/>
   </g>
   <g id="patch_21">
    <path clip-path="url(#p0cfaf6b047)" d="M 257.881094 231.02758 
L 789.309665 231.02758 
L 789.309665 240.252307 
L 257.881094 240.252307 
z
" style="fill:#4dabb0;stroke:#ffffff;stroke-linejoin:miter;"/>
   </g>
   <g id="patch_22">
    <path clip-path="url(#p0cfaf6b047)" d="M 257.881094 242.558489 
L 598.327522 242.558489 
L 598.327522 251.783216 
L 257.881094 251.783216 
z
" style="fill:#4fabba;stroke:#ffffff;stroke-linejoin:miter;"/>
   </g>
   <g id="patch_23">
    <path clip-path="url(#p0cfaf6b047)" d="M 257.881094 254.089398 
L 606.631094 254.089398 
L 606.631094 263.314125 
L 257.881094 263.314125 
z
" style="fill:#51acc5;stroke:#ffffff;stroke-linejoin:miter;"/>
   </g>
   <g id="patch_24">
    <path clip-path="url(#p0cfaf6b047)" d="M 257.881094 265.620307 
L 567.881094 265.620307 
L 567.881094 274.845034 
L 257.881094 274.845034 
z
" style="fill:#54acd3;stroke:#ffffff;stroke-linejoin:miter;"/>
   </g>
   <g id="patch_25">
    <path clip-path="url(#p0cfaf6b047)" d="M 257.881094 277.151216 
L 531.898951 277.151216 
L 531.898951 286.375943 
L 257.881094 286.375943 
z
" style="fill:#6daee2;stroke:#ffffff;stroke-linejoin:miter;"/>
   </g>
   <g id="patch_26">
    <path clip-path="url(#p0cfaf6b047)" d="M 257.881094 288.682125 
L 556.809665 288.682125 
L 556.809665 297.906852 
L 257.881094 297.906852 
z
" style="fill:#91aee8;stroke:#ffffff;stroke-linejoin:miter;"/>
   </g>
   <g id="patch_27">
    <path clip-path="url(#p0cfaf6b047)" d="M 257.881094 300.213034 
L 537.434665 300.213034 
L 537.434665 309.437761 
L 257.881094 309.437761 
z
" style="fill:#a9aceb;stroke:#ffffff;stroke-linejoin:miter;"/>
   </g>
   <g id="patch_28">
    <path clip-path="url(#p0cfaf6b047)" d="M 257.881094 311.743943 
L 678.595379 311.743943 
L 678.595379 320.96867 
L 257.881094 320.96867 
z
" style="fill:#baa6ea;stroke:#ffffff;stroke-linejoin:miter;"/>
   </g>
   <g id="patch_29">
    <path clip-path="url(#p0cfaf6b047)" d="M 257.881094 323.274852 
L 661.988237 323.274852 
L 661.988237 332.49958 
L 257.881094 332.49958 
z
" style="fill:#c89fe9;stroke:#ffffff;stroke-linejoin:miter;"/>
   </g>
   <g id="patch_30">
    <path clip-path="url(#p0cfaf6b047)" d="M 257.881094 334.805761 
L 551.273951 334.805761 
L 551.273951 344.030489 
L 257.881094 344.030489 
z
" style="fill:#d795e8;stroke:#ffffff;stroke-linejoin:miter;"/>
   </g>
   <g id="patch_31">
    <path clip-path="url(#p0cfaf6b047)" d="M 257.881094 346.33667 
L 506.988237 346.33667 
L 506.988237 355.561398 
L 257.881094 355.561398 
z
" style="fill:#e688e5;stroke:#ffffff;stroke-linejoin:miter;"/>
   </g>
   <g id="patch_32">
    <path clip-path="url(#p0cfaf6b047)" d="M 257.881094 357.86758 
L 542.970379 357.86758 
L 542.970379 367.092307 
L 257.881094 367.092307 
z
" style="fill:#e78dd6;stroke:#ffffff;stroke-linejoin:miter;"/>
   </g>
   <g id="patch_33">
    <path clip-path="url(#p0cfaf6b047)" d="M 257.881094 369.398489 
L 548.506094 369.398489 
L 548.506094 378.623216 
L 257.881094 378.623216 
z
" style="fill:#e88fc9;stroke:#ffffff;stroke-linejoin:miter;"/>
   </g>
   <g id="patch_34">
    <path clip-path="url(#p0cfaf6b047)" d="M 257.881094 380.929398 
L 626.006094 380.929398 
L 626.006094 390.154125 
L 257.881094 390.154125 
z
" style="fill:#e992bd;stroke:#ffffff;stroke-linejoin:miter;"/>
   </g>
   <g id="patch_35">
    <path clip-path="url(#p0cfaf6b047)" d="M 257.881094 392.460307 
L 570.648951 392.460307 
L 570.648951 401.685034 
L 257.881094 401.685034 
z
" style="fill:#e994b1;stroke:#ffffff;stroke-linejoin:miter;"/>
   </g>
   <g id="line2d_10">
    <path clip-path="url(#p0cfaf6b047)" style="fill:none;stroke:#424242;stroke-linecap:round;stroke-width:2.7;"/>
   </g>
   <g id="line2d_11">
    <path clip-path="url(#p0cfaf6b047)" style="fill:none;stroke:#424242;stroke-linecap:round;stroke-width:2.7;"/>
   </g>
   <g id="line2d_12">
    <path clip-path="url(#p0cfaf6b047)" style="fill:none;stroke:#424242;stroke-linecap:round;stroke-width:2.7;"/>
   </g>
   <g id="line2d_13">
    <path clip-path="url(#p0cfaf6b047)" style="fill:none;stroke:#424242;stroke-linecap:round;stroke-width:2.7;"/>
   </g>
   <g id="line2d_14">
    <path clip-path="url(#p0cfaf6b047)" style="fill:none;stroke:#424242;stroke-linecap:round;stroke-width:2.7;"/>
   </g>
   <g id="line2d_15">
    <path clip-path="url(#p0cfaf6b047)" style="fill:none;stroke:#424242;stroke-linecap:round;stroke-width:2.7;"/>
   </g>
   <g id="line2d_16">
    <path clip-path="url(#p0cfaf6b047)" style="fill:none;stroke:#424242;stroke-linecap:round;stroke-width:2.7;"/>
   </g>
   <g id="line2d_17">
    <path clip-path="url(#p0cfaf6b047)" style="fill:none;stroke:#424242;stroke-linecap:round;stroke-width:2.7;"/>
   </g>
   <g id="line2d_18">
    <path clip-path="url(#p0cfaf6b047)" style="fill:none;stroke:#424242;stroke-linecap:round;stroke-width:2.7;"/>
   </g>
   <g id="line2d_19">
    <path clip-path="url(#p0cfaf6b047)" style="fill:none;stroke:#424242;stroke-linecap:round;stroke-width:2.7;"/>
   </g>
   <g id="line2d_20">
    <path clip-path="url(#p0cfaf6b047)" style="fill:none;stroke:#424242;stroke-linecap:round;stroke-width:2.7;"/>
   </g>
   <g id="line2d_21">
    <path clip-path="url(#p0cfaf6b047)" style="fill:none;stroke:#424242;stroke-linecap:round;stroke-width:2.7;"/>
   </g>
   <g id="line2d_22">
    <path clip-path="url(#p0cfaf6b047)" style="fill:none;stroke:#424242;stroke-linecap:round;stroke-width:2.7;"/>
   </g>
   <g id="line2d_23">
    <path clip-path="url(#p0cfaf6b047)" style="fill:none;stroke:#424242;stroke-linecap:round;stroke-width:2.7;"/>
   </g>
   <g id="line2d_24">
    <path clip-path="url(#p0cfaf6b047)" style="fill:none;stroke:#424242;stroke-linecap:round;stroke-width:2.7;"/>
   </g>
   <g id="line2d_25">
    <path clip-path="url(#p0cfaf6b047)" style="fill:none;stroke:#424242;stroke-linecap:round;stroke-width:2.7;"/>
   </g>
   <g id="line2d_26">
    <path clip-path="url(#p0cfaf6b047)" style="fill:none;stroke:#424242;stroke-linecap:round;stroke-width:2.7;"/>
   </g>
   <g id="line2d_27">
    <path clip-path="url(#p0cfaf6b047)" style="fill:none;stroke:#424242;stroke-linecap:round;stroke-width:2.7;"/>
   </g>
   <g id="line2d_28">
    <path clip-path="url(#p0cfaf6b047)" style="fill:none;stroke:#424242;stroke-linecap:round;stroke-width:2.7;"/>
   </g>
   <g id="line2d_29">
    <path clip-path="url(#p0cfaf6b047)" style="fill:none;stroke:#424242;stroke-linecap:round;stroke-width:2.7;"/>
   </g>
   <g id="line2d_30">
    <path clip-path="url(#p0cfaf6b047)" style="fill:none;stroke:#424242;stroke-linecap:round;stroke-width:2.7;"/>
   </g>
   <g id="line2d_31">
    <path clip-path="url(#p0cfaf6b047)" style="fill:none;stroke:#424242;stroke-linecap:round;stroke-width:2.7;"/>
   </g>
   <g id="line2d_32">
    <path clip-path="url(#p0cfaf6b047)" style="fill:none;stroke:#424242;stroke-linecap:round;stroke-width:2.7;"/>
   </g>
   <g id="line2d_33">
    <path clip-path="url(#p0cfaf6b047)" style="fill:none;stroke:#424242;stroke-linecap:round;stroke-width:2.7;"/>
   </g>
   <g id="line2d_34">
    <path clip-path="url(#p0cfaf6b047)" style="fill:none;stroke:#424242;stroke-linecap:round;stroke-width:2.7;"/>
   </g>
   <g id="line2d_35">
    <path clip-path="url(#p0cfaf6b047)" style="fill:none;stroke:#424242;stroke-linecap:round;stroke-width:2.7;"/>
   </g>
   <g id="line2d_36">
    <path clip-path="url(#p0cfaf6b047)" style="fill:none;stroke:#424242;stroke-linecap:round;stroke-width:2.7;"/>
   </g>
   <g id="line2d_37">
    <path clip-path="url(#p0cfaf6b047)" style="fill:none;stroke:#424242;stroke-linecap:round;stroke-width:2.7;"/>
   </g>
   <g id="line2d_38">
    <path clip-path="url(#p0cfaf6b047)" style="fill:none;stroke:#424242;stroke-linecap:round;stroke-width:2.7;"/>
   </g>
   <g id="line2d_39">
    <path clip-path="url(#p0cfaf6b047)" style="fill:none;stroke:#424242;stroke-linecap:round;stroke-width:2.7;"/>
   </g>
   <g id="line2d_40">
    <path clip-path="url(#p0cfaf6b047)" style="fill:none;stroke:#424242;stroke-linecap:round;stroke-width:2.7;"/>
   </g>
   <g id="line2d_41">
    <path clip-path="url(#p0cfaf6b047)" style="fill:none;stroke:#424242;stroke-linecap:round;stroke-width:2.7;"/>
   </g>
   <g id="line2d_42">
    <path clip-path="url(#p0cfaf6b047)" style="fill:none;stroke:#424242;stroke-linecap:round;stroke-width:2.7;"/>
   </g>
   <g id="patch_36">
    <path d="M 257.881094 402.838125 
L 257.881094 22.318125 
" style="fill:none;stroke:#cccccc;stroke-linecap:square;stroke-linejoin:miter;stroke-width:1.25;"/>
   </g>
   <g id="patch_37">
    <path d="M 815.881094 402.838125 
L 815.881094 22.318125 
" style="fill:none;stroke:#cccccc;stroke-linecap:square;stroke-linejoin:miter;stroke-width:1.25;"/>
   </g>
   <g id="patch_38">
    <path d="M 257.881094 402.838125 
L 815.881094 402.838125 
" style="fill:none;stroke:#cccccc;stroke-linecap:square;stroke-linejoin:miter;stroke-width:1.25;"/>
   </g>
   <g id="patch_39">
    <path d="M 257.881094 22.318125 
L 815.881094 22.318125 
" style="fill:none;stroke:#cccccc;stroke-linecap:square;stroke-linejoin:miter;stroke-width:1.25;"/>
   </g>
   <g id="text_45">
    <!-- MOVIES RELEASED IN 2004 -->
    <g style="fill:#262626;" transform="translate(454.942656 16.318125)scale(0.12 -0.12)">
     <use xlink:href="#DejaVuSans-77"/>
     <use x="86.279297" xlink:href="#DejaVuSans-79"/>
     <use x="163.240234" xlink:href="#DejaVuSans-86"/>
     <use x="231.648438" xlink:href="#DejaVuSans-73"/>
     <use x="261.140625" xlink:href="#DejaVuSans-69"/>
     <use x="324.324219" xlink:href="#DejaVuSans-83"/>
     <use x="387.800781" xlink:href="#DejaVuSans-32"/>
     <use x="419.587891" xlink:href="#DejaVuSans-82"/>
     <use x="489.070312" xlink:href="#DejaVuSans-69"/>
     <use x="552.253906" xlink:href="#DejaVuSans-76"/>
     <use x="607.966797" xlink:href="#DejaVuSans-69"/>
     <use x="671.150391" xlink:href="#DejaVuSans-65"/>
     <use x="739.558594" xlink:href="#DejaVuSans-83"/>
     <use x="803.035156" xlink:href="#DejaVuSans-69"/>
     <use x="866.21875" xlink:href="#DejaVuSans-68"/>
     <use x="943.220703" xlink:href="#DejaVuSans-32"/>
     <use x="975.007812" xlink:href="#DejaVuSans-73"/>
     <use x="1004.5" xlink:href="#DejaVuSans-78"/>
     <use x="1079.304688" xlink:href="#DejaVuSans-32"/>
     <use x="1111.091797" xlink:href="#DejaVuSans-50"/>
     <use x="1174.714844" xlink:href="#DejaVuSans-48"/>
     <use x="1238.337891" xlink:href="#DejaVuSans-48"/>
     <use x="1301.960938" xlink:href="#DejaVuSans-52"/>
    </g>
   </g>
  </g>
 </g>
 <defs>
  <clipPath id="p0cfaf6b047">
   <rect height="380.52" width="558" x="257.881094" y="22.318125"/>
  </clipPath>
 </defs>
</svg>
